<svg width="428" height="429" viewBox="0 0 428 429" fill="none" xmlns="http://www.w3.org/2000/svg">
<g clip-path="url(#clip0_62_202)">
<path d="M428 214.5C428.027 237.901 424.209 261.146 416.699 283.309C416.268 284.576 415.827 285.838 415.375 287.095C407.423 309.088 395.923 329.631 381.332 347.908C376.976 353.372 372.36 358.61 367.485 363.623C362.61 368.643 357.492 373.419 352.131 377.95C322.231 403.307 285.909 419.915 247.17 425.942H247.164C242.225 426.708 237.238 427.305 232.203 427.734C226.207 428.24 220.139 428.496 214 428.5C185.45 428.537 157.183 422.843 130.874 411.756C104.565 400.668 80.7495 384.412 60.8381 363.952C59.4389 362.521 58.0608 361.069 56.7037 359.596C53.3228 355.93 50.0706 352.15 46.9471 348.256C45.1933 346.066 43.4818 343.841 41.8124 341.583C31.5296 327.691 22.9743 312.6 16.335 296.643C13.5036 289.847 11.031 282.906 8.92729 275.851C8.77534 275.351 8.62971 274.851 8.48409 274.35C8.16752 273.274 7.86151 272.191 7.56605 271.102C2.52953 252.657 -0.0150654 233.621 6.70962e-05 214.5C6.70962e-05 96.3125 95.8125 0.5 214 0.5C332.188 0.5 428 96.3125 428 214.5Z" fill="#F2F2F2"/>
<path d="M90.7586 128.414C90.4273 130.425 90.5411 132.485 91.092 134.448C91.6428 136.411 92.6174 138.229 93.9469 139.774C95.2765 141.32 96.9287 142.555 98.7873 143.393C100.646 144.231 102.666 144.651 104.704 144.624L138.864 244.022L160.661 229.042L118.584 129.489C118.311 126.068 116.793 122.865 114.317 120.488C111.841 118.111 108.579 116.725 105.149 116.592C101.719 116.46 98.3598 117.59 95.7076 119.769C93.0554 121.947 91.2945 125.023 90.7586 128.414Z" fill="#A0616A"/>
<path d="M269.055 162.045C253.885 179.304 216.479 209.72 185.664 230.664C179.004 235.191 172.647 239.268 166.892 242.681C163.004 244.986 159.389 246.98 156.135 248.607C153.95 249.695 151.565 250.32 149.128 250.444C146.691 250.567 144.255 250.186 141.972 249.324C139.689 248.462 137.608 247.139 135.861 245.435C134.113 243.732 132.736 241.687 131.816 239.427L110.479 187.807L117.862 182.913L136.064 170.839L140.199 168.104L157.268 208.757L175.268 194.309L186.443 185.338L237.385 144.456L241.779 143.152L252.029 153.155L259.279 160.234L266.098 161.418C267.117 161.595 268.105 161.804 269.055 162.045Z" fill="#6610F2"/>
<path d="M405.156 303.875C406.214 305.217 407.309 306.553 408.404 307.895C404.631 315.643 400.39 323.153 395.704 330.384C395.355 330.137 395.007 329.891 394.659 329.644C394.604 329.614 394.551 329.58 394.501 329.542C393.203 328.618 391.899 327.706 390.601 326.782V326.775C389.53 323.132 388.932 319.365 388.822 315.569C389.491 315.415 390.097 315.06 390.557 314.55C391.018 314.04 391.31 313.402 391.395 312.72C391.48 312.039 391.354 311.347 391.033 310.74C390.712 310.133 390.211 309.639 389.6 309.326C389.429 309.029 389.309 308.813 389.138 308.509C389.144 308.433 389.157 308.351 389.163 308.275C390.157 300.367 400.237 297.607 405.156 303.875Z" fill="white"/>
<path d="M416.521 276.777C417.281 278.866 417.973 280.979 418.598 283.114C418.167 284.381 417.726 285.643 417.275 286.901C417.104 286.236 416.926 285.571 416.743 284.906C415.713 281.21 414.476 277.574 413.039 274.016C411.861 271.097 410.557 268.24 409.126 265.444C401.346 250.252 390.071 237.124 376.228 227.139C370.508 225.816 365.331 222.771 361.394 218.414C359.974 216.849 358.787 215.088 357.868 213.185C358.45 213.102 359.032 212.988 359.602 212.868C359.78 212.83 359.963 212.786 360.14 212.748L360.21 212.735C360.833 212.591 361.401 212.269 361.846 211.81C362.29 211.35 362.593 210.772 362.716 210.144C362.84 209.517 362.78 208.867 362.543 208.273C362.306 207.679 361.903 207.166 361.381 206.796C361.059 206.562 360.729 206.334 360.406 206.106C359.913 205.745 359.412 205.403 358.912 205.049C358.859 205.016 358.809 204.98 358.76 204.941C358.19 204.536 357.621 204.143 357.057 203.732C357.494 202.321 358.25 201.03 359.267 199.958C362.806 196.305 369.125 196.387 373.253 199.363C377.387 202.339 379.464 207.55 379.73 212.627C379.964 216.977 379.027 221.282 377.792 225.48C378.103 225.708 378.425 225.923 378.736 226.157C384.436 230.382 389.708 235.155 394.475 240.409C391.721 233.875 390.721 225.353 391.436 219.484C392.253 212.798 395.501 206.448 398.16 200.123C401.345 192.525 412.21 192.424 415.274 200.072C415.306 200.148 415.337 200.218 415.363 200.294C414.85 200.807 414.356 201.339 413.881 201.889C413.285 202.583 412.912 203.441 412.812 204.351C412.711 205.26 412.888 206.179 413.318 206.986C413.749 207.794 414.413 208.452 415.224 208.876C416.035 209.3 416.955 209.468 417.864 209.36L417.958 209.348C418.353 211.605 418.578 213.888 418.63 216.179C418.708 222.588 417.462 228.945 414.969 234.85C412.477 240.755 408.791 246.081 404.143 250.495C403.84 250.78 403.542 251.059 403.232 251.331C406.165 255.502 408.799 259.875 411.114 264.418C413.17 268.422 414.975 272.55 416.521 276.777Z" fill="white"/>
<path d="M294.526 217.381L292.614 348.699L138.154 344.268L162.821 289.818C162.643 288.07 173.647 275.807 173.584 273.989C173.394 268.665 177.37 263.733 178.016 258.161C179.333 246.67 171.792 203.274 175.268 194.309C176.749 190.306 178.646 186.469 180.928 182.862C182.904 179.874 184.93 177.86 186.867 177.132L192.578 163.824L197.643 156.226L237.385 144.456L241.779 143.152L252.03 153.155L259.279 160.234L266.098 161.418C267.117 161.595 268.105 161.804 269.055 162.045C273.629 163.099 277.892 165.211 281.502 168.211C293.405 178.323 294.792 197.342 294.526 217.381Z" fill="#6610F2"/>
<path d="M383.231 347.713C378.875 353.177 374.259 358.415 369.384 363.428L352.682 363.44L262.859 363.542L246.689 363.561L235.938 363.573L219.945 363.586L207.643 363.599L184.92 363.624L171.517 363.643L143.291 363.668L129.818 363.687L92.4822 363.725L69.0308 363.751L62.7374 363.757C61.3382 362.326 59.9601 360.874 58.6031 359.401C55.2221 355.735 51.9699 351.955 48.8464 348.061L61.8764 348.049L70.7529 348.042L91.3045 348.017L130.964 347.979L144.368 347.966L149.787 347.96H149.806L154.061 347.954L155.967 347.947L160.848 347.941H162.912L177.386 347.928L208.606 347.89L222.345 347.878L235.501 347.865L247.835 347.852L265.531 347.834L360.045 347.739L383.231 347.713Z" fill="#CCCCCC"/>
<path d="M169.532 150.536L169.498 150.539C167.671 150.709 165.852 150.146 164.44 148.975C163.029 147.803 162.14 146.119 161.97 144.293L158.37 105.862C157.718 98.9771 158.457 92.0316 160.543 85.4383C164.632 72.5701 173.53 61.7764 185.381 55.3064C191.5 51.9745 198.231 49.9161 205.167 49.2553C233.544 46.5518 243.914 52.4619 261.443 95.741C278.972 139.02 265.049 134.231 265.049 134.231C265.137 135.157 265.037 136.091 264.756 136.978C264.205 138.708 263.006 140.159 261.41 141.026C260.591 141.47 259.691 141.745 258.764 141.834C225.217 150.361 191.366 159.338 169.526 150.536L169.532 150.536Z" fill="#2F2E41"/>
<path d="M231.973 85.67C236.184 91.9008 238.455 99.2397 238.497 106.76C238.54 114.28 236.353 121.645 232.213 127.923C228.073 134.201 222.165 139.111 215.236 142.034C208.306 144.956 200.666 145.76 193.281 144.343C188.391 143.421 183.734 141.538 179.578 138.803C175.422 136.068 171.85 132.535 169.069 128.41C164.866 122.181 162.602 114.848 162.562 107.334C162.522 99.8205 164.707 92.4632 168.842 86.1897C172.977 79.9163 178.877 75.0076 185.798 72.0827C192.719 69.1578 200.352 68.3475 207.732 69.7541C212.625 70.6707 217.288 72.5497 221.449 75.2821C225.61 78.0145 229.187 81.5458 231.973 85.6714L231.973 85.67Z" fill="#9E616A"/>
<path d="M146.473 110.131C145.958 104.686 146.543 99.1933 148.193 93.9788C148.575 81.2229 152.276 69.6691 167.834 70.154C172.644 67.5378 177.93 65.9157 183.379 65.3841L191.067 64.6249C191.154 64.6163 191.24 64.608 191.326 64.6C196.653 64.1042 202.025 64.6625 207.136 66.2429C212.247 67.8233 216.996 70.3949 221.113 73.8108C225.23 77.2267 228.634 81.4201 231.131 86.1515C233.627 90.8829 235.167 96.0597 235.663 101.386L235.735 102.156L219.469 103.746L212.468 88.7651L212.814 104.4L204.413 105.225L200.882 97.6663L201.055 105.549C188.581 116.535 169.666 117.111 146.553 110.902L146.473 110.131Z" fill="#2F2E41"/>
<path d="M198.504 146.599C198.366 147.866 198.585 149.145 199.138 150.293C199.417 150.881 199.776 151.427 200.206 151.915C200.574 152.33 200.99 152.701 201.445 153.019C202.792 153.957 204.43 154.384 206.064 154.224C206.166 154.213 206.268 154.201 206.369 154.187C206.47 154.172 206.572 154.156 206.673 154.137C206.775 154.119 206.876 154.098 206.977 154.074C207.077 154.05 207.178 154.024 207.279 153.996L212.956 152.406L219.319 134.666L220.777 150.232L246.592 143.045L240.403 76.9868L196.403 81.3223L197.61 82.4842C201.619 86.3867 204.474 91.3197 205.861 96.7403C207.237 102.233 207.662 107.921 207.117 113.558C206.607 119.257 205.552 124.894 203.965 130.392C202.584 135.26 200.924 140.044 198.992 144.721C198.742 145.321 198.578 145.954 198.504 146.599Z" fill="#2F2E41"/>
<path d="M204.371 354.872C203.615 354.871 202.868 354.702 202.185 354.378L80.2933 357.487C79.358 357.044 78.579 356.328 78.0593 355.433C77.5397 354.538 77.3037 353.506 77.3826 352.474C77.4614 351.442 77.8515 350.459 78.5012 349.653C79.1509 348.847 80.0297 348.258 81.0215 347.962L160.766 324.185C161.592 323.938 162.467 323.905 163.309 324.087L286.66 339.122C287.752 339.358 288.736 339.944 289.463 340.792C290.19 341.64 290.619 342.703 290.686 343.817C290.752 344.932 290.452 346.038 289.831 346.966C289.21 347.894 288.302 348.594 287.247 348.958L206.041 354.591C205.504 354.776 204.94 354.872 204.371 354.872Z" fill="#3F3D56"/>
<path d="M208.854 346.387C208.304 346.387 207.763 346.246 207.282 345.978L108.289 350.602C107.726 350.287 107.272 349.81 106.985 349.233C106.698 348.656 106.592 348.006 106.679 347.367C106.767 346.729 107.045 346.131 107.477 345.653C107.909 345.175 108.475 344.837 109.101 344.685L144.939 335.987C145.498 335.852 146.084 335.869 146.634 336.037L238.663 335.926C239.318 336.127 239.892 336.532 240.3 337.082C240.708 337.632 240.93 338.298 240.933 338.983C240.935 339.669 240.718 340.337 240.313 340.89C239.909 341.443 239.338 341.852 238.684 342.057L209.812 346.241C209.502 346.338 209.179 346.387 208.854 346.387Z" fill="#2F2E41"/>
<path d="M198.434 341.111C200.148 342.215 202.083 342.931 204.102 343.207C206.122 343.483 208.178 343.313 210.125 342.708C212.072 342.104 213.863 341.08 215.372 339.708C216.88 338.337 218.069 336.651 218.856 334.771L323.637 343.001L318.572 317.043L210.497 316.013C207.25 314.901 203.708 315.019 200.542 316.344C197.375 317.669 194.805 320.11 193.318 323.204C191.831 326.297 191.531 329.829 192.474 333.129C193.417 336.43 195.537 339.269 198.434 341.111Z" fill="#A0616A"/>
<path d="M260.324 172.055C260.324 172.055 276.152 159.392 295.146 182.185C307.955 197.556 332.665 290.479 334.714 328.985C334.844 331.422 334.468 333.859 333.612 336.144C332.756 338.428 331.437 340.512 329.738 342.263C328.038 344.014 325.996 345.395 323.738 346.32C321.48 347.245 319.056 347.694 316.616 347.638L260.767 346.666L254.521 311.558L298.615 312.08L260.324 172.055Z" fill="#6610F2"/>
<path d="M197.592 354.886C195.676 354.885 193.779 354.501 192.014 353.757L79.0355 356.335C76.0539 355.091 73.5788 352.878 72.0104 350.054C70.442 347.23 69.872 343.959 70.3926 340.771L66.1946 241.551C66.7513 238.007 68.6167 234.801 71.4223 232.565C74.2279 230.329 77.7699 229.226 81.3488 229.475L186.236 233.825C188.249 233.957 190.213 234.511 191.998 235.45C193.784 236.39 195.352 237.694 196.601 239.279C197.85 240.863 198.752 242.693 199.248 244.649C199.745 246.604 199.825 248.642 199.483 250.631L211.772 342.922C211.194 346.266 209.455 349.299 206.861 351.488C204.268 353.676 200.985 354.879 197.592 354.886Z" fill="#3F3D56"/>
<path d="M111.802 59.4892L64.6528 59.3563C63.3889 59.3548 62.176 59.8545 61.28 60.7458C60.3839 61.6371 59.8778 62.8473 59.8726 64.1111L59.7017 126.545C59.699 127.807 60.1976 129.019 61.088 129.914C61.9784 130.809 63.1877 131.315 64.4502 131.319L90.605 131.395L111.606 131.451C112.87 131.454 114.082 130.954 114.978 130.063C115.873 129.171 116.377 127.96 116.38 126.697L116.393 123.005L116.557 64.2694C116.56 63.0052 116.061 61.7917 115.169 60.8955C114.277 59.9992 113.067 59.4934 111.802 59.4892Z" fill="#E6E6E6"/>
<path d="M108.479 63.2184L67.9579 63.1045C66.7747 63.103 65.6391 63.5706 64.8 64.4049C63.961 65.2392 63.4869 66.3722 63.4817 67.5554L63.3677 107.696C63.3598 112.968 65.443 118.027 69.1604 121.765C72.8779 125.502 77.926 127.613 83.1975 127.634L90.8965 127.653L108.301 127.703C109.485 127.706 110.621 127.239 111.46 126.404C112.3 125.57 112.774 124.436 112.778 123.252L112.79 119.213L112.93 67.6947C112.932 66.5111 112.465 65.3749 111.63 64.5356C110.796 63.6963 109.662 63.2226 108.479 63.2184Z" fill="white"/>
<path d="M103.926 90.6459H72.3328C72.0837 90.6459 71.8372 90.6949 71.6071 90.7902C71.377 90.8855 71.168 91.0252 70.9919 91.2013C70.8158 91.3774 70.6762 91.5864 70.5809 91.8165C70.4856 92.0465 70.4365 92.2931 70.4365 92.5421C70.4365 92.7911 70.4856 93.0377 70.5809 93.2678C70.6762 93.4979 70.8158 93.7069 70.9919 93.883C71.168 94.0591 71.377 94.1987 71.6071 94.294C71.8372 94.3893 72.0837 94.4384 72.3328 94.4384H103.926C104.429 94.4384 104.911 94.2386 105.267 93.883C105.623 93.5274 105.822 93.045 105.822 92.5421C105.822 92.0392 105.623 91.5569 105.267 91.2013C104.911 90.8457 104.429 90.6459 103.926 90.6459Z" fill="#6610F2"/>
<path d="M79.2783 80.2498H72.3328C71.8298 80.2498 71.3475 80.4496 70.9919 80.8052C70.6363 81.1608 70.4365 81.6431 70.4365 82.1461C70.4365 82.649 70.6363 83.1313 70.9919 83.4869C71.3475 83.8425 71.8298 84.0423 72.3328 84.0423H79.2783C79.7812 84.0423 80.2635 83.8425 80.6191 83.4869C80.9747 83.1313 81.1745 82.649 81.1745 82.1461C81.1745 81.6431 80.9747 81.1608 80.6191 80.8052C80.2635 80.4496 79.7812 80.2498 79.2783 80.2498Z" fill="#6610F2"/>
<path d="M103.926 107.316H72.3328C71.8298 107.316 71.3475 107.516 70.9919 107.872C70.6363 108.227 70.4365 108.71 70.4365 109.213C70.4365 109.716 70.6363 110.198 70.9919 110.553C71.3475 110.909 71.8298 111.109 72.3328 111.109H103.926C104.429 111.109 104.911 110.909 105.267 110.553C105.623 110.198 105.822 109.716 105.822 109.213C105.822 108.71 105.623 108.227 105.267 107.872C104.911 107.516 104.429 107.316 103.926 107.316Z" fill="#6610F2"/>
<path d="M103.926 98.9843H72.3328C71.8307 98.9843 71.3492 99.1837 70.9942 99.5388C70.6391 99.8938 70.4397 100.375 70.4397 100.877C70.4397 101.379 70.6391 101.861 70.9942 102.216C71.3492 102.571 71.8307 102.77 72.3328 102.77H103.926C104.428 102.77 104.91 102.571 105.265 102.216C105.62 101.861 105.819 101.379 105.819 100.877C105.819 100.375 105.62 99.8938 105.265 99.5388C104.91 99.1837 104.428 98.9843 103.926 98.9843Z" fill="#6610F2"/>
<path d="M97.7872 86.955C95.5687 86.955 93.4001 86.2971 91.5554 85.0646C89.7108 83.8321 88.2731 82.0802 87.4242 80.0306C86.5752 77.981 86.353 75.7256 86.7858 73.5498C87.2187 71.3739 88.287 69.3753 89.8557 67.8065C91.4244 66.2378 93.423 65.1695 95.5989 64.7367C97.7748 64.3039 100.03 64.526 102.08 65.375C104.129 66.224 105.881 67.6617 107.114 69.5063C108.346 71.3509 109.004 73.5196 109.004 75.7381C109.001 78.7119 107.818 81.563 105.715 83.6659C103.612 85.7687 100.761 86.9516 97.7872 86.955ZM97.7872 65.3007C95.7229 65.3007 93.7049 65.9128 91.9885 67.0597C90.2721 68.2066 88.9343 69.8367 88.1443 71.7438C87.3543 73.651 87.1476 75.7496 87.5503 77.7743C87.9531 79.799 88.9471 81.6587 90.4068 83.1184C91.8665 84.5781 93.7263 85.5722 95.7509 85.9749C97.7756 86.3777 99.8742 86.171 101.781 85.381C103.689 84.591 105.319 83.2532 106.466 81.5368C107.612 79.8204 108.225 77.8024 108.225 75.7381C108.221 72.9709 107.121 70.3179 105.164 68.3612C103.207 66.4045 100.554 65.3038 97.7872 65.3007Z" fill="#6610F2"/>
<path d="M102.498 80.0828C101.723 76.0827 100.11 72.2922 97.7633 68.9611C97.7103 68.8747 97.6361 68.8034 97.5478 68.7539C97.4594 68.7044 97.3598 68.6784 97.2585 68.6784C97.1572 68.6784 97.0576 68.7044 96.9692 68.7539C96.8808 68.8034 96.8066 68.8747 96.7537 68.9611C94.7103 72.5351 93.4041 76.4826 92.9125 80.5701C92.8216 81.3153 93.9917 81.3087 94.0818 80.5701C94.246 79.2454 94.5022 77.9338 94.8482 76.6446C94.893 76.6358 94.9368 76.6224 94.9789 76.6046C96.5336 75.824 98.2901 75.538 100.012 75.785C100.027 75.7872 100.042 75.7839 100.057 75.7854C100.625 77.2812 101.065 78.8229 101.37 80.3936C101.513 81.1317 102.64 80.8192 102.498 80.0828ZM95.2691 75.2107C95.8058 73.5457 96.489 71.9317 97.3108 70.3874C98.1806 71.7163 98.9359 73.1167 99.5685 74.5736C98.1058 74.4636 96.637 74.6812 95.2691 75.2107Z" fill="#6610F2"/>
</g>
<defs>
<clipPath id="clip0_62_202">
<rect width="428" height="428" fill="white" transform="translate(0 0.5)"/>
</clipPath>
</defs>
</svg>
