<svg width="660" height="460" viewBox="0 0 660 460" fill="none" xmlns="http://www.w3.org/2000/svg">
<g clip-path="url(#clip0_80_159)">
<path d="M131.501 459.5C204.126 459.5 263.001 455.03 263.001 449.517C263.001 444.003 204.126 439.534 131.501 439.534C58.8748 439.534 0 444.003 0 449.517C0 455.03 58.8748 459.5 131.501 459.5Z" fill="#E6E6E6"/>
<path d="M100.517 102.344C123.402 92.6144 151.905 98.779 179.742 103.057C180.001 97.8762 183.141 91.5704 179.852 87.9557C175.856 83.5641 176.224 78.9498 178.629 74.3089C184.777 62.4415 175.968 49.8139 167.073 39.3142C165.068 36.953 162.534 35.0977 159.678 33.8991C156.821 32.7005 153.721 32.1924 150.631 32.416L134.154 33.5925C130.144 33.8787 126.318 35.3822 123.187 37.9016C120.055 40.421 117.768 43.8363 116.632 47.6904C112.697 53.039 110.592 58.3728 111.917 63.6788C106.024 67.7044 105.034 72.5636 107.682 78.0415C109.928 81.4906 109.904 84.848 107.58 88.1125C104.528 92.2745 102.191 96.9152 100.664 101.844L100.517 102.344Z" fill="#2F2E41"/>
<path d="M644.36 397.298H177.934C173.787 397.298 169.809 395.651 166.876 392.719C163.943 389.788 162.295 385.811 162.295 381.665C331.374 362.023 497.276 362.023 660 381.665C660 385.811 658.352 389.788 655.419 392.719C652.486 395.651 648.508 397.298 644.36 397.298Z" fill="#2F2E41"/>
<path d="M660 382.585L162.295 381.665L219.977 284.65L220.253 284.19V70.3788C220.253 67.7836 220.764 65.2137 221.758 62.816C222.751 60.4183 224.207 58.2397 226.043 56.4046C227.879 54.5695 230.059 53.1139 232.457 52.1209C234.856 51.1278 237.427 50.6168 240.023 50.617H579.511C582.108 50.6168 584.679 51.1278 587.077 52.1209C589.476 53.1139 591.656 54.5695 593.492 56.4046C595.327 58.2397 596.784 60.4183 597.777 62.816C598.771 65.2137 599.282 67.7836 599.282 70.3788V285.661L660 382.585Z" fill="#3F3D56"/>
<path d="M239.573 64.4107C237.865 64.4126 236.228 65.0914 235.021 66.2982C233.814 67.505 233.135 69.1411 233.133 70.8478V265.798C233.135 267.505 233.814 269.141 235.021 270.348C236.228 271.555 237.865 272.233 239.573 272.235H582.722C584.43 272.233 586.066 271.555 587.274 270.348C588.481 269.141 589.16 267.505 589.162 265.798V70.8478C589.16 69.1411 588.481 67.505 587.274 66.2983C586.066 65.0915 584.43 64.4127 582.722 64.4107H239.573Z" fill="white"/>
<path d="M241.01 297.984C240.483 297.985 239.967 298.136 239.522 298.421C239.078 298.705 238.724 299.111 238.503 299.589L220.729 338.212C220.536 338.632 220.451 339.094 220.483 339.556C220.515 340.017 220.663 340.463 220.913 340.853C221.162 341.242 221.506 341.563 221.912 341.785C222.318 342.007 222.773 342.123 223.236 342.123H597.008C597.478 342.123 597.941 342.003 598.352 341.774C598.763 341.545 599.108 341.215 599.355 340.815C599.603 340.415 599.743 339.958 599.765 339.489C599.786 339.019 599.686 338.551 599.476 338.131L580.156 299.509C579.928 299.049 579.576 298.663 579.14 298.394C578.704 298.124 578.201 297.982 577.688 297.984H241.01Z" fill="#2F2E41"/>
<path d="M409.768 61.1922C412.054 61.1922 413.908 59.3395 413.908 57.0541C413.908 54.7687 412.054 52.916 409.768 52.916C407.481 52.916 405.628 54.7687 405.628 57.0541C405.628 59.3395 407.481 61.1922 409.768 61.1922Z" fill="white"/>
<path d="M373.029 349.48C372.422 349.481 371.832 349.681 371.351 350.05C370.869 350.419 370.522 350.936 370.364 351.521L365.906 368.074C365.795 368.483 365.781 368.911 365.863 369.327C365.945 369.742 366.122 370.133 366.38 370.469C366.637 370.805 366.969 371.078 367.349 371.265C367.729 371.452 368.147 371.55 368.57 371.55H453.358C453.798 371.55 454.232 371.445 454.623 371.243C455.014 371.042 455.351 370.75 455.606 370.391C455.861 370.033 456.027 369.619 456.09 369.184C456.152 368.748 456.11 368.304 455.965 367.889L450.234 351.336C450.046 350.794 449.694 350.324 449.226 349.992C448.759 349.659 448.199 349.48 447.626 349.48H373.029Z" fill="#2F2E41"/>
<path d="M599.281 280.971V284.649H219.977L220.263 284.19V280.971H599.281Z" fill="#2F2E41"/>
<path d="M588.702 129.241C624.268 129.241 653.1 100.421 653.1 64.8705C653.1 29.3197 624.268 0.5 588.702 0.5C553.136 0.5 524.304 29.3197 524.304 64.8705C524.304 100.421 553.136 129.241 588.702 129.241Z" fill="#6610F2"/>
<path d="M615.382 92.9177H562.023C561.047 92.9167 560.112 92.5289 559.422 91.8392C558.732 91.1496 558.344 90.2146 558.343 89.2394V57.0541C558.344 56.0789 558.732 55.1439 559.422 54.4543C560.112 53.7647 561.048 53.3768 562.023 53.3758H615.382C616.357 53.3768 617.293 53.7647 617.982 54.4543C618.672 55.1439 619.06 56.0789 619.061 57.0541V89.2393C619.06 90.2146 618.672 91.1496 617.983 91.8392C617.293 92.5289 616.357 92.9167 615.382 92.9177ZM562.023 57.0541V89.2394H615.384L615.382 57.0541L562.023 57.0541Z" fill="white"/>
<path d="M605.262 57.0541H572.143V42.3408C572.143 31.684 579.107 23.9492 588.702 23.9492C598.297 23.9492 605.262 31.684 605.262 42.3408L605.262 57.0541ZM575.822 53.3758H601.582V42.3408C601.582 33.678 596.286 27.6276 588.702 27.6276C581.119 27.6276 575.823 33.678 575.823 42.3408L575.822 53.3758Z" fill="white"/>
<path d="M588.702 75.9054C590.735 75.9054 592.382 74.2586 592.382 72.2271C592.382 70.1956 590.735 68.5488 588.702 68.5488C586.67 68.5488 585.022 70.1956 585.022 72.2271C585.022 74.2586 586.67 75.9054 588.702 75.9054Z" fill="white"/>
<path d="M543.747 206.11H278.548C277.246 206.109 275.998 205.591 275.077 204.671C274.157 203.75 273.639 202.503 273.637 201.201V135.445C273.639 134.143 274.157 132.896 275.077 131.975C275.998 131.055 277.246 130.537 278.548 130.536H543.747C545.049 130.537 546.297 131.055 547.218 131.975C548.138 132.896 548.656 134.143 548.658 135.445V201.201C548.656 202.503 548.138 203.75 547.218 204.671C546.297 205.591 545.049 206.109 543.747 206.11ZM278.548 132.5C277.767 132.5 277.018 132.811 276.466 133.363C275.913 133.915 275.602 134.664 275.602 135.445V201.201C275.602 201.982 275.913 202.731 276.466 203.283C277.018 203.835 277.767 204.146 278.548 204.147H543.747C544.528 204.146 545.277 203.835 545.829 203.283C546.382 202.731 546.692 201.982 546.693 201.201V135.445C546.692 134.664 546.382 133.915 545.829 133.363C545.277 132.811 544.528 132.5 543.747 132.5L278.548 132.5Z" fill="#E6E6E6"/>
<path d="M319.755 185.797C330.803 185.797 339.76 176.844 339.76 165.8C339.76 154.756 330.803 145.803 319.755 145.803C308.706 145.803 299.75 154.756 299.75 165.8C299.75 176.844 308.706 185.797 319.755 185.797Z" fill="#E6E6E6"/>
<path d="M365.957 152.469C365.519 152.468 365.085 152.554 364.68 152.721C364.274 152.888 363.906 153.134 363.596 153.443C363.286 153.753 363.04 154.12 362.872 154.525C362.704 154.93 362.618 155.364 362.618 155.802C362.618 156.24 362.704 156.674 362.872 157.078C363.04 157.483 363.286 157.851 363.596 158.16C363.906 158.47 364.274 158.715 364.68 158.882C365.085 159.049 365.519 159.135 365.957 159.134H523.14C524.024 159.134 524.872 158.783 525.498 158.158C526.123 157.533 526.474 156.686 526.474 155.802C526.474 154.918 526.123 154.07 525.498 153.445C524.872 152.82 524.024 152.469 523.14 152.469H365.957Z" fill="#E6E6E6"/>
<path d="M365.957 172.466C365.073 172.466 364.225 172.817 363.6 173.442C362.974 174.067 362.623 174.914 362.623 175.798C362.623 176.682 362.974 177.53 363.6 178.155C364.225 178.78 365.073 179.131 365.957 179.131H433.593C434.478 179.131 435.326 178.78 435.951 178.155C436.576 177.53 436.928 176.682 436.928 175.798C436.928 174.914 436.576 174.067 435.951 173.442C435.326 172.817 434.478 172.466 433.593 172.466H365.957Z" fill="#E6E6E6"/>
<path d="M219.325 173.814L170.301 199.866L169.68 178.156C185.681 175.486 200.905 170.837 214.981 163.269L220.108 150.607C220.667 149.227 221.575 148.016 222.743 147.093C223.911 146.17 225.3 145.567 226.772 145.342C228.244 145.117 229.749 145.279 231.139 145.812C232.53 146.344 233.758 147.229 234.703 148.379C236.086 150.062 236.778 152.207 236.637 154.38C236.497 156.554 235.535 158.592 233.947 160.083L219.325 173.814Z" fill="#FFB8B8"/>
<path d="M99.5395 324.23C99.1818 322.919 99.1059 321.547 99.3167 320.204C99.5274 318.862 100.02 317.579 100.762 316.44L111.531 299.92C114.079 296.013 117.987 293.19 122.498 292.001C127.01 290.811 131.802 291.339 135.946 293.482C131.421 301.182 132.051 307.938 137.51 313.809C129.036 317.943 121.205 323.28 114.259 329.653C112.991 330.517 111.534 331.066 110.011 331.253C108.488 331.441 106.942 331.262 105.502 330.731C104.062 330.201 102.769 329.334 101.732 328.203C100.695 327.072 99.9432 325.71 99.5395 324.23Z" fill="#2F2E41"/>
<path d="M221.557 302.629C219.928 305.344 217.627 307.595 214.877 309.165C212.127 310.736 209.019 311.573 205.852 311.597L134.308 312.139L131.206 294.15L162.854 284.846L136.17 264.376L165.336 230.26L218.311 279.614C221.407 282.498 223.419 286.358 224.01 290.547C224.601 294.736 223.735 299.002 221.557 302.629Z" fill="#2F2E41"/>
<path d="M123.138 425.652H106.383C91.3398 322.578 76.0269 219.216 121.277 180.637L174.645 189.321L167.818 234.602L138.032 268.718L123.138 425.652Z" fill="#2F2E41"/>
<path d="M137.867 449.001C136.555 449.359 135.183 449.435 133.839 449.224C132.496 449.014 131.213 448.521 130.074 447.779L111.881 445.335C107.972 442.789 105.148 438.883 103.958 434.373C102.767 429.864 103.295 425.073 105.439 420.931C113.143 425.455 119.901 424.823 125.774 419.367C129.924 427.743 136.761 427.232 143.291 434.288C144.156 435.555 144.705 437.011 144.892 438.534C145.08 440.056 144.901 441.602 144.371 443.041C143.84 444.481 142.973 445.773 141.842 446.809C140.71 447.846 139.347 448.598 137.867 449.001Z" fill="#2F2E41"/>
<path d="M162.854 111.785L131.826 104.341C136.979 93.7973 137.404 82.0653 134.929 69.6048L156.028 68.9845C156.689 84.4794 158.689 98.9556 162.854 111.785Z" fill="#FFB8B8"/>
<path d="M171.381 207.998C148.794 223.382 132.835 208.524 120.656 185.599C122.348 171.571 119.608 154.784 114.533 136.544C112.276 128.498 113.119 119.899 116.895 112.445C120.671 104.99 127.106 99.2212 134.929 96.2773L161.613 107.443C184.271 125.903 188.73 145.9 180.23 166.991L171.381 207.998Z" fill="white"/>
<path d="M106.383 127.292L81.561 140.318L125.621 166.37L131.751 181.486C132.16 182.495 132.36 183.576 132.337 184.665C132.314 185.753 132.07 186.826 131.619 187.817C131.168 188.808 130.52 189.696 129.715 190.429C128.909 191.161 127.962 191.722 126.933 192.077C125.762 192.48 124.515 192.608 123.287 192.448C122.059 192.289 120.885 191.848 119.856 191.16C118.827 190.471 117.972 189.554 117.357 188.48C116.742 187.406 116.384 186.204 116.312 184.969L115.692 174.434L59.6925 155.962C57.8058 155.34 56.0855 154.296 54.6619 152.911C53.2383 151.526 52.1487 149.835 51.4757 147.966C50.4947 145.242 50.4448 142.27 51.3337 139.515C52.2226 136.76 54.0002 134.377 56.3883 132.74L101.419 101.86L106.383 127.292Z" fill="#FFB8B8"/>
<path d="M131.206 129.773C120.853 125.238 111.44 130.164 99.5575 134.115L97.6958 101.24C109.494 94.9539 120.743 93.2591 131.206 98.1382L131.206 129.773Z" fill="white"/>
<path d="M143.589 85.2688C154.53 85.2688 163.399 76.4033 163.399 65.4672C163.399 54.5311 154.53 45.6656 143.589 45.6656C132.649 45.6656 123.779 54.5311 123.779 65.4672C123.779 76.4033 132.649 85.2688 143.589 85.2688Z" fill="#FFB8B8"/>
<path d="M167.289 62.9688C147.675 64.8889 132.73 61.6826 123.178 52.553V45.2007H165.624L167.289 62.9688Z" fill="#2F2E41"/>
</g>
<defs>
<clipPath id="clip0_80_159">
<rect width="660" height="459" fill="white" transform="translate(0 0.5)"/>
</clipPath>
</defs>
</svg>
