<svg width="598" height="423" viewBox="0 0 598 423" fill="none" xmlns="http://www.w3.org/2000/svg">
<g clip-path="url(#clip0_46_51)">
<path d="M305.411 421.606C323.397 421.606 337.977 407.005 337.977 388.995C337.977 370.984 323.397 356.384 305.411 356.384C287.425 356.384 272.844 370.984 272.844 388.995C272.844 407.005 287.425 421.606 305.411 421.606Z" fill="#6C63FF"/>
<path d="M499.964 419.773C518.183 414.294 537.552 408.581 552.002 395.556C564.913 383.916 573.63 366.143 568.281 348.687C562.943 331.267 546.954 319.652 530.446 313.875C521.083 310.598 511.288 308.78 501.497 307.352C490.852 305.8 480.161 304.528 469.475 303.304C426.206 298.349 382.774 295.321 339.179 294.222C317.667 293.68 296.16 293.693 274.646 294.005C255.432 294.285 235.197 294.278 217.372 286.1C203.512 279.742 190.931 268.172 187.069 252.97C182.611 235.42 190.834 217.549 202.63 204.839C208.848 198.139 216.115 192.501 223.612 187.316C231.744 181.691 240.161 176.465 248.759 171.586C265.694 161.982 283.4 153.808 301.691 147.15C310.715 143.865 319.872 141.03 329.109 138.415C336.909 136.207 344.733 133.996 352.271 130.987C366.843 125.171 380.703 115.32 384.408 99.1693C387.92 83.8624 381.999 67.2456 371.619 55.8744C359.61 42.7188 341.503 36.9518 324.143 36.0187C304.654 34.9711 285.614 39.8554 267.296 46.0542C247.758 52.6657 228.642 60.2677 208.692 65.623C188.908 70.9282 168.742 74.6819 148.376 76.8501C138.406 77.9131 128.135 79.1135 118.106 78.2996C109.701 77.6176 101.339 75.1422 95.144 69.1688C89.8325 64.047 86.6684 57.0078 87.7562 49.5794C87.9538 48.2301 90.0006 48.8037 89.8042 50.1448C88.4801 59.1873 94.6183 67.5197 102.182 71.788C110.924 76.7209 121.562 76.7277 131.295 76.1635C152.399 74.8871 173.36 71.8529 193.96 67.0923C214.203 62.4625 233.722 55.8441 253.22 48.7741C271.737 42.0594 290.669 35.5059 310.452 34.0515C327.617 32.7896 345.674 35.2937 360.628 44.2765C373.771 52.1712 383.435 65.3369 386.514 80.4449C389.523 95.2082 385.356 110.068 374.196 120.37C362.641 131.037 346.797 135.597 332.032 139.797C313.305 145.124 294.979 151.352 277.241 159.437C259.261 167.609 242.017 177.317 225.701 188.452C209.951 199.23 194.408 212.79 189.427 232.017C187.107 240.973 187.535 250.472 191.418 258.931C194.87 266.453 200.555 272.78 207.178 277.66C222.98 289.304 242.897 291.695 261.985 291.932C283.423 292.2 304.862 291.475 326.307 291.828C370.011 292.546 413.626 295.21 457.152 299.819C468.058 300.975 478.951 302.253 489.83 303.652C499.615 304.911 509.433 306.162 519.053 308.398C536.159 312.374 552.805 320.019 563.437 334.542C568.156 340.838 571.079 348.298 571.895 356.127C572.639 364.296 570.642 372.481 566.953 379.749C558.789 395.835 543.496 406.066 527.255 412.788C518.557 416.389 509.534 419.116 500.529 421.824C499.217 422.219 498.656 420.167 499.964 419.773Z" fill="#F2F2F2"/>
<path d="M89.1276 66.7851C98.5116 66.7851 106.119 59.1675 106.119 49.7707C106.119 40.3739 98.5116 32.7563 89.1276 32.7563C79.7437 32.7563 72.1365 40.3739 72.1365 49.7707C72.1365 59.1675 79.7437 66.7851 89.1276 66.7851Z" fill="white"/>
<path d="M207.004 99.0414C216.388 99.0414 223.995 91.4238 223.995 82.0271C223.995 72.6303 216.388 65.0127 207.004 65.0127C197.62 65.0127 190.013 72.6303 190.013 82.0271C190.013 91.4238 197.62 99.0414 207.004 99.0414Z" fill="white"/>
<path d="M306.827 34.5287C316.211 34.5287 323.818 26.9111 323.818 17.5144C323.818 8.11759 316.211 0.5 306.827 0.5C297.443 0.5 289.836 8.11759 289.836 17.5144C289.836 26.9111 297.443 34.5287 306.827 34.5287Z" fill="white"/>
<path d="M369.127 106.84C378.511 106.84 386.119 99.2222 386.119 89.8254C386.119 80.4286 378.511 72.811 369.127 72.811C359.744 72.811 352.136 80.4286 352.136 89.8254C352.136 99.2222 359.744 106.84 369.127 106.84Z" fill="#F2F2F2"/>
<path d="M284.88 190.494C294.264 190.494 301.871 182.876 301.871 173.479C301.871 164.083 294.264 156.465 284.88 156.465C275.496 156.465 267.889 164.083 267.889 173.479C267.889 182.876 275.496 190.494 284.88 190.494Z" fill="white"/>
<path d="M177.977 230.903C187.361 230.903 194.968 223.285 194.968 213.889C194.968 204.492 187.361 196.874 177.977 196.874C168.593 196.874 160.986 204.492 160.986 213.889C160.986 223.285 168.593 230.903 177.977 230.903Z" fill="white"/>
<path d="M291.251 293.998C300.635 293.998 308.243 286.38 308.243 276.984C308.243 267.587 300.635 259.969 291.251 259.969C281.867 259.969 274.26 267.587 274.26 276.984C274.26 286.38 281.867 293.998 291.251 293.998Z" fill="#F2F2F2"/>
<path d="M413.021 329.445C422.405 329.445 430.012 321.827 430.012 312.43C430.012 303.033 422.405 295.416 413.021 295.416C403.637 295.416 396.03 303.033 396.03 312.43C396.03 321.827 403.637 329.445 413.021 329.445Z" fill="#F2F2F2"/>
<path d="M555.322 321.646C564.706 321.646 572.313 314.029 572.313 304.632C572.313 295.235 564.706 287.617 555.322 287.617C545.938 287.617 538.331 295.235 538.331 304.632C538.331 314.029 545.938 321.646 555.322 321.646Z" fill="white"/>
<path d="M301.922 48.7097C251.025 49.0697 209.352 90.487 208.629 141.45C208.622 141.92 208.619 145.229 208.619 149.556C208.62 155.9 211.136 161.985 215.617 166.471C220.097 170.958 226.173 173.479 232.509 173.479C235.649 173.479 238.759 172.858 241.661 171.654C244.562 170.449 247.198 168.684 249.417 166.458C251.637 164.233 253.397 161.592 254.597 158.685C255.797 155.779 256.413 152.664 256.41 149.519C256.408 146.575 256.406 144.538 256.406 144.413C256.405 136.537 258.451 128.796 262.343 121.952C266.235 115.107 271.839 109.396 278.605 105.378C285.37 101.361 293.063 99.1758 300.927 99.0386C308.792 98.9015 316.556 100.817 323.457 104.596C330.358 108.375 336.158 113.888 340.285 120.592C344.413 127.297 346.727 134.962 346.999 142.833C347.272 150.705 345.493 158.512 341.838 165.486C338.183 172.46 332.779 178.362 326.155 182.61L326.164 182.62C326.164 182.62 292.161 204.54 281.795 234.61L281.804 234.612C279.981 240.772 279.057 247.164 279.061 253.589C279.061 256.23 279.216 279.338 279.516 298.094C279.621 304.565 282.262 310.736 286.87 315.275C291.478 319.814 297.683 322.357 304.146 322.355C307.394 322.355 310.61 321.712 313.608 320.462C316.607 319.213 319.329 317.383 321.619 315.076C323.908 312.769 325.719 310.032 326.948 307.021C328.177 304.011 328.799 300.787 328.779 297.535C328.675 280.358 328.619 260.357 328.619 258.906C328.619 240.442 346.407 222.045 361.018 210.048C377.843 196.233 389.951 177.407 394.814 156.17C395.89 151.797 396.483 147.32 396.583 142.818C396.583 130.402 394.13 118.109 389.364 106.646C384.599 95.1841 377.615 84.7794 368.816 76.0318C360.017 67.2841 349.576 60.3664 338.096 55.6772C326.615 50.988 314.321 48.62 301.922 48.7097Z" fill="#6C63FF"/>
<path d="M597.157 422.5H0.842965C0.619821 422.499 0.406042 422.41 0.248483 422.252C0.0909245 422.094 0.00244141 421.879 0.00244141 421.656C0.00244141 421.432 0.0909245 421.218 0.248483 421.06C0.406042 420.902 0.619821 420.812 0.842965 420.812H597.157C597.381 420.812 597.595 420.901 597.753 421.059C597.911 421.217 598 421.432 598 421.656C598 421.88 597.911 422.094 597.753 422.253C597.595 422.411 597.381 422.5 597.157 422.5Z" fill="#3F3D56"/>
<path d="M444.919 194.035C456.649 194.035 466.158 184.513 466.158 172.767C466.158 161.022 456.649 151.5 444.919 151.5C433.189 151.5 423.68 161.022 423.68 172.767C423.68 184.513 433.189 194.035 444.919 194.035Z" fill="#2F2E41"/>
<path d="M405.672 413.19H396.993L392.864 379.666H405.674L405.672 413.19Z" fill="#A0616A"/>
<path d="M390.793 410.706H407.532V421.26H380.254C380.254 419.874 380.526 418.502 381.056 417.221C381.586 415.941 382.362 414.777 383.341 413.797C384.319 412.817 385.481 412.04 386.76 411.51C388.039 410.979 389.409 410.706 390.793 410.706Z" fill="#2F2E41"/>
<path d="M472.929 413.19H464.25L460.12 379.666H472.931L472.929 413.19Z" fill="#A0616A"/>
<path d="M458.05 410.706H474.789V421.26H447.51C447.51 419.874 447.783 418.502 448.313 417.221C448.842 415.941 449.619 414.777 450.597 413.797C451.576 412.817 452.738 412.04 454.016 411.51C455.295 410.979 456.666 410.706 458.05 410.706Z" fill="#2F2E41"/>
<path d="M441.692 194.16C451.295 194.16 459.08 186.364 459.08 176.748C459.08 167.131 451.295 159.335 441.692 159.335C432.088 159.335 424.303 167.131 424.303 176.748C424.303 186.364 432.088 194.16 441.692 194.16Z" fill="#A0616A"/>
<path d="M452.056 250.332L459.836 232.431C461.726 228.232 462.267 223.549 461.386 219.028C460.505 214.508 458.244 210.373 454.916 207.193C454.232 206.517 453.506 205.884 452.742 205.301C448.903 202.293 444.172 200.654 439.298 200.643C436.021 200.656 432.785 201.376 429.812 202.755C429.556 202.869 429.309 202.989 429.054 203.11C428.565 203.344 428.084 203.599 427.617 203.861C424.569 205.614 421.975 208.059 420.044 211C418.114 213.94 416.9 217.294 416.502 220.791L413.068 249.602C412.204 251.863 381.394 333.532 392.169 395.883C392.284 396.549 392.608 397.16 393.095 397.628C393.581 398.096 394.204 398.396 394.873 398.485L405.797 399.973C406.595 400.083 407.404 399.885 408.062 399.421C408.721 398.956 409.179 398.26 409.344 397.471L427.673 309.981C427.788 309.438 428.081 308.948 428.505 308.591C428.93 308.234 429.462 308.029 430.017 308.011C430.571 307.992 431.116 308.16 431.564 308.487C432.012 308.815 432.337 309.284 432.487 309.818L458.385 401.824C458.569 402.492 458.968 403.082 459.519 403.502C460.07 403.922 460.744 404.149 461.436 404.149C461.643 404.148 461.849 404.129 462.052 404.092L475.397 401.519C476.173 401.374 476.867 400.943 477.342 400.312C477.818 399.682 478.041 398.896 477.967 398.109C476.006 376.21 465.585 266.517 452.056 250.332Z" fill="#2F2E41"/>
<path d="M374.116 191.238C373.996 192.273 374.103 193.322 374.431 194.311C374.759 195.3 375.3 196.205 376.015 196.963C376.73 197.72 377.602 198.311 378.57 198.694C379.538 199.077 380.578 199.243 381.617 199.18L391.336 222.57L398.688 211.656L388.331 191.119C388.11 189.378 387.259 187.779 385.939 186.625C384.62 185.47 382.923 184.841 381.171 184.856C379.419 184.87 377.733 185.528 376.432 186.705C375.132 187.881 374.308 189.494 374.116 191.238Z" fill="#A0616A"/>
<path d="M440.728 273.883C441.761 273.759 442.755 273.41 443.639 272.86C444.523 272.31 445.276 271.573 445.845 270.7C446.414 269.827 446.784 268.84 446.931 267.809C447.077 266.777 446.996 265.725 446.693 264.728L467.143 249.814L454.831 245.197L437.299 260.068C435.66 260.689 434.306 261.89 433.493 263.444C432.679 264.998 432.463 266.797 432.886 268.5C433.308 270.203 434.34 271.692 435.785 272.684C437.231 273.676 438.989 274.102 440.728 273.883Z" fill="#A0616A"/>
<path d="M407.391 238.163C406.607 238.162 405.825 238.085 405.056 237.933C403.196 237.578 401.451 236.771 399.976 235.582C398.501 234.393 397.341 232.859 396.597 231.115L382.98 214.489C382.692 214.137 382.483 213.728 382.365 213.289C382.248 212.85 382.226 212.39 382.301 211.942C382.375 211.494 382.544 211.066 382.797 210.689C383.05 210.311 383.381 209.992 383.767 209.753L393.455 203.747C393.812 203.526 394.21 203.377 394.626 203.31C395.041 203.243 395.465 203.259 395.875 203.357C396.284 203.456 396.669 203.634 397.009 203.882C397.349 204.131 397.636 204.444 397.855 204.804L407.452 220.637L425.832 207.035C427.295 206.267 428.986 206.051 430.595 206.428C432.204 206.805 433.624 207.749 434.595 209.087C435.567 210.426 436.025 212.069 435.886 213.718C435.747 215.367 435.021 216.911 433.839 218.067L415.494 234.824C413.339 236.964 410.426 238.164 407.391 238.163Z" fill="#2F2E41"/>
<path d="M457.055 263.169C457.03 263.169 457.005 263.169 456.98 263.168C456.533 263.157 456.093 263.052 455.69 262.861C455.286 262.669 454.927 262.394 454.636 262.055L446.022 251.993C445.729 251.65 445.512 251.249 445.385 250.816C445.258 250.383 445.224 249.928 445.285 249.481C445.347 249.033 445.502 248.604 445.742 248.222C445.981 247.84 446.299 247.512 446.674 247.262L462.803 236.495L448.191 218.905C447.341 217.486 447.03 215.808 447.313 214.178C447.596 212.548 448.456 211.074 449.735 210.026C451.013 208.979 452.626 208.426 454.278 208.471C455.929 208.515 457.51 209.153 458.731 210.268L476.489 227.646C477.887 228.925 478.954 230.524 479.598 232.306C480.243 234.088 480.446 236.001 480.19 237.879C479.934 239.757 479.227 241.545 478.129 243.089C477.031 244.634 475.576 245.888 473.887 246.745L459.373 262.167C459.075 262.483 458.716 262.735 458.317 262.907C457.918 263.08 457.489 263.169 457.055 263.169Z" fill="#2F2E41"/>
<path d="M437.271 226.092C437.132 226.092 436.994 226.083 436.857 226.066C436.257 225.993 435.691 225.749 435.225 225.364C434.76 224.978 434.414 224.467 434.23 223.89L427.758 204.02C427.596 203.517 427.621 202.973 427.828 202.488C428.035 202.002 428.411 201.608 428.886 201.379L429.096 201.28C429.287 201.189 429.475 201.099 429.668 201.013C432.686 199.612 435.971 198.881 439.298 198.87C443.617 198.878 447.84 200.149 451.448 202.526C451.932 202.848 452.27 203.348 452.389 203.918C452.508 204.487 452.4 205.081 452.086 205.571L439.944 224.618C439.66 225.07 439.265 225.443 438.797 225.701C438.33 225.958 437.804 226.093 437.271 226.092Z" fill="#E6E6E6"/>
<path d="M461.664 163.273C465.503 163.273 468.614 160.157 468.614 156.313C468.614 152.47 465.503 149.354 461.664 149.354C457.826 149.354 454.714 152.47 454.714 156.313C454.714 160.157 457.826 163.273 461.664 163.273Z" fill="#2F2E41"/>
<path d="M437.84 148.664C432.958 148.664 428.276 150.606 424.824 154.062C421.372 157.519 419.433 162.207 419.433 167.096V174.894H429.011L433.592 167.096L434.966 174.894H464.034L456.247 167.096C456.247 162.207 454.307 157.519 450.855 154.062C447.403 150.606 442.722 148.664 437.84 148.664Z" fill="#2F2E41"/>
<path d="M465.236 151.547C466.005 149.14 467.596 147.082 469.73 145.734C471.864 144.386 474.404 143.835 476.904 144.177C481.333 144.918 484.835 148.483 486.921 152.465C489.008 156.447 489.971 160.903 491.374 165.175C492.777 169.446 494.766 173.741 498.307 176.506C501.848 179.271 507.282 180.021 510.76 177.177C510.363 180.141 509.045 182.906 506.993 185.079C504.94 187.252 502.258 188.724 499.324 189.287C496.391 189.85 493.355 189.475 490.645 188.216C487.936 186.956 485.691 184.875 484.228 182.268C482.393 178.998 481.919 175.167 481.375 171.456C480.83 167.745 480.123 163.906 477.932 160.864C475.742 157.822 471.64 155.836 468.16 157.221L465.236 151.547Z" fill="#2F2E41"/>
<path d="M239.254 162.164C232.918 162.163 226.842 159.642 222.362 155.156C217.882 150.669 215.365 144.585 215.364 138.24C215.364 133.913 215.367 130.605 215.374 130.134C215.575 115.313 219.303 100.753 226.247 87.6628C214.837 103.304 208.564 122.109 208.294 141.477C208.288 141.948 208.284 145.256 208.285 149.583C208.285 155.928 210.802 162.012 215.282 166.499C219.762 170.985 225.839 173.506 232.174 173.507C237.381 173.505 242.444 171.801 246.596 168.655C250.747 165.508 253.759 161.091 255.175 156.074C250.8 160.002 245.13 162.171 239.254 162.164Z" fill="#3F3D56"/>
<path d="M303.542 99.119C310.866 99.4693 317.997 101.594 324.321 105.312C330.644 109.03 335.973 114.229 339.848 120.463C343.723 126.697 346.03 133.779 346.57 141.103C347.109 148.426 345.866 155.771 342.946 162.507C347.169 157.54 350.273 151.721 352.046 145.444C353.82 139.168 354.22 132.582 353.222 126.137C352.223 119.691 349.848 113.537 346.258 108.094C342.669 102.651 337.95 98.0464 332.423 94.5951C326.895 91.1438 320.69 88.9265 314.229 88.0945C307.768 87.2625 301.205 87.8352 294.985 89.7737C288.765 91.7121 283.036 94.9707 278.189 99.3273C273.341 103.684 269.488 109.036 266.893 115.019C271.378 109.735 277.015 105.554 283.369 102.797C289.723 100.041 296.625 98.7821 303.542 99.119Z" fill="#3F3D56"/>
<path d="M310.892 311.039C304.428 311.041 298.223 308.498 293.615 303.959C289.008 299.42 286.366 293.249 286.262 286.778C285.962 268.022 285.807 244.914 285.807 242.273C285.802 235.848 286.726 229.456 288.549 223.296L288.54 223.294C289.617 220.202 290.917 217.193 292.43 214.29C287.785 220.489 284.087 227.347 281.461 234.637L281.469 234.639C279.646 240.799 278.723 247.191 278.727 253.616C278.727 256.257 278.882 279.365 279.182 298.121C279.287 304.592 281.928 310.763 286.536 315.302C291.144 319.841 297.348 322.384 303.812 322.382C309.141 322.381 314.326 320.65 318.59 317.448C322.854 314.247 325.966 309.747 327.459 304.625C322.93 308.76 317.02 311.048 310.892 311.039Z" fill="#3F3D56"/>
<path d="M89.5865 413.513L98.2655 413.512L102.395 379.989L89.5844 379.989L89.5865 413.513Z" fill="#FFB8B8"/>
<path d="M115.005 421.583L87.7266 421.584L87.7262 411.03L104.465 411.029C107.26 411.029 109.941 412.141 111.918 414.12C113.894 416.099 115.005 418.783 115.005 421.583Z" fill="#2F2E41"/>
<path d="M58.4361 413.513L67.115 413.512L71.2446 379.989L58.434 379.989L58.4361 413.513Z" fill="#FFB8B8"/>
<path d="M83.8546 421.583L56.5763 421.584L56.5758 411.03L73.3148 411.029C76.11 411.029 78.7908 412.141 80.7674 414.12C82.744 416.099 83.8545 418.783 83.8546 421.583Z" fill="#2F2E41"/>
<path d="M66.0207 403.203L57.5429 402.756C57.1057 402.733 56.6775 402.624 56.2829 402.434C55.8884 402.244 55.5354 401.977 55.2445 401.65C54.9535 401.322 54.7304 400.94 54.5879 400.526C54.4455 400.111 54.3866 399.672 54.4147 399.235L64.5476 286.893L111.21 299.502L115.706 298.274L101.647 397.726C101.527 398.474 101.156 399.159 100.595 399.668C100.034 400.176 99.3169 400.478 98.5616 400.523L89.4225 400.949C88.9655 400.975 88.5083 400.905 88.0796 400.744C87.6509 400.584 87.2602 400.336 86.9321 400.016C86.604 399.697 86.3456 399.313 86.1733 398.888C86.0011 398.463 85.9186 398.008 85.9312 397.549L87.5871 337.86C87.5949 337.584 87.4991 337.315 87.3187 337.106C87.1383 336.897 86.8863 336.764 86.6124 336.732C86.3385 336.7 86.0626 336.772 85.839 336.933C85.6154 337.095 85.4603 337.334 85.4043 337.605L69.4348 400.567C69.2841 401.314 68.8793 401.985 68.2894 402.467C67.6995 402.948 66.9611 403.21 66.2 403.208C66.1407 403.208 66.0809 403.206 66.0207 403.203Z" fill="#2F2E41"/>
<path d="M91.1447 194.974C100.748 194.974 108.533 187.178 108.533 177.562C108.533 167.946 100.748 160.15 91.1447 160.15C81.5414 160.15 73.7564 167.946 73.7564 177.562C73.7564 187.178 81.5414 194.974 91.1447 194.974Z" fill="#FFB8B8"/>
<path d="M62.1944 228.718L64.1063 270.025L64.7975 285.054C64.825 285.708 65.0468 286.339 65.4346 286.866C65.8223 287.394 66.3583 287.793 66.974 288.014L111.814 304.279C112.176 304.414 112.56 304.481 112.946 304.478C113.388 304.48 113.825 304.393 114.233 304.222C114.64 304.051 115.009 303.8 115.317 303.483C115.625 303.166 115.866 302.79 116.026 302.378C116.186 301.966 116.262 301.526 116.248 301.083L114.409 226.811C114.289 220.717 112.049 214.856 108.075 210.239C104.102 205.622 98.6448 202.538 92.644 201.518C92.2103 201.452 91.769 201.386 91.3278 201.327C87.6068 200.864 83.8298 201.224 80.2625 202.38C76.6953 203.536 73.4244 205.461 70.68 208.02C67.8382 210.637 65.6053 213.847 64.139 217.424C62.6727 221.001 62.0089 224.856 62.1944 228.718Z" fill="white"/>
<path d="M133.233 296.037C132.173 295.707 131.204 295.134 130.404 294.363C129.604 293.591 128.995 292.644 128.626 291.595C128.256 290.546 128.137 289.426 128.277 288.323C128.417 287.22 128.813 286.165 129.432 285.242L114.227 264.995L127.348 264.182L139.776 283.533C141.107 284.563 142.033 286.03 142.391 287.675C142.75 289.32 142.519 291.039 141.738 292.531C140.958 294.023 139.678 295.192 138.122 295.833C136.567 296.474 134.836 296.546 133.233 296.037Z" fill="#FFB8B8"/>
<path d="M122.542 281.578C122.139 281.414 121.773 281.172 121.464 280.866C121.155 280.559 120.91 280.195 120.743 279.793L97.8348 225.138C97.3853 224.068 97.1508 222.92 97.1447 221.759C97.1385 220.598 97.3609 219.447 97.7991 218.372C98.2374 217.298 98.8828 216.32 99.6985 215.495C100.514 214.67 101.484 214.014 102.553 213.565C103.622 213.116 104.769 212.882 105.929 212.877C107.088 212.871 108.237 213.095 109.31 213.535C110.383 213.974 111.359 214.621 112.182 215.439C113.005 216.256 113.659 217.228 114.107 218.299L137.015 272.954C137.354 273.765 137.358 274.676 137.026 275.49C136.694 276.303 136.054 276.951 135.245 277.292L125.075 281.566C124.675 281.736 124.245 281.824 123.81 281.826C123.375 281.828 122.944 281.744 122.542 281.578Z" fill="white"/>
<path d="M85.5543 279.65L107.557 237.463C107.982 236.651 108.71 236.042 109.583 235.767C110.455 235.493 111.401 235.577 112.212 236L144.149 252.702C144.96 253.127 145.568 253.857 145.842 254.73C146.116 255.604 146.033 256.551 145.61 257.363L123.607 299.551C123.183 300.362 122.455 300.972 121.582 301.246C120.709 301.521 119.764 301.437 118.952 301.014L87.0151 284.311C86.2049 283.887 85.596 283.157 85.3222 282.283C85.0483 281.41 85.1318 280.463 85.5543 279.65Z" fill="#3F3D56"/>
<path d="M100.31 260.376C99.9191 259.335 99.2904 258.4 98.4744 257.646C97.6584 256.892 96.6777 256.339 95.6105 256.032C94.5433 255.725 93.4192 255.672 92.3278 255.877C91.2364 256.082 90.2081 256.54 89.3248 257.214L68.2427 243.209L68.2068 256.374L88.2322 267.655C89.3376 268.924 90.854 269.763 92.5154 270.024C94.1767 270.286 95.877 269.953 97.3179 269.085C98.7589 268.216 99.8485 266.868 100.396 265.275C100.943 263.683 100.913 261.948 100.31 260.376Z" fill="#FFB8B8"/>
<path d="M73.6554 263.336L56.4258 249.67C54.5619 249.043 52.8777 247.973 51.5178 246.551C50.1579 245.129 49.1629 243.398 48.6182 241.506C48.0735 239.614 47.9954 237.618 48.3906 235.689C48.7858 233.761 49.6425 231.957 50.8871 230.433L66.5311 209.902C67.6182 208.572 69.1471 207.678 70.8383 207.384C72.5295 207.089 74.2701 207.414 75.7418 208.299C77.2135 209.184 78.318 210.569 78.8535 212.202C79.389 213.836 79.3197 215.607 78.6582 217.193L66.2803 237.469L84.4707 246.108C84.8937 246.309 85.2693 246.598 85.5727 246.955C85.8762 247.312 86.1004 247.729 86.2308 248.18C86.3612 248.63 86.3946 249.103 86.329 249.567C86.2633 250.031 86.1 250.476 85.8499 250.872L78.5071 262.509C78.2589 262.901 77.9311 263.238 77.5449 263.495C77.1587 263.753 76.7227 263.927 76.2652 264.005C76.247 264.008 76.2287 264.011 76.2105 264.014C75.7609 264.082 75.3023 264.057 74.8628 263.94C74.4233 263.824 74.0124 263.618 73.6554 263.336Z" fill="white"/>
<path d="M78.0057 189.221C77.931 189.003 77.9074 188.77 77.9365 188.541C77.9656 188.312 78.0467 188.092 78.1735 187.9C78.3004 187.707 78.4696 187.545 78.6683 187.428C78.867 187.311 79.0899 187.241 79.3199 187.223C79.7908 187.249 80.2517 187.37 80.6747 187.578C81.0977 187.787 81.4739 188.08 81.7808 188.439C82.4101 189.165 83.1427 189.795 83.9551 190.308C84.7963 190.733 85.9371 190.672 86.4166 189.863C86.8669 189.103 86.5584 188.085 86.2858 187.202C85.5921 184.956 85.2039 182.626 85.1318 180.276C85.0533 177.652 85.4229 174.915 86.8732 172.869C88.745 170.228 92.0919 169.226 95.2594 169.298C98.4268 169.371 101.543 170.35 104.68 170.969C105.763 171.183 107.037 171.292 107.761 170.451C108.531 169.557 108.248 168.111 107.921 166.904C107.071 163.772 106.169 160.534 104.193 158.005C102.057 155.377 99.0063 153.657 95.6546 153.192C92.4368 152.792 89.1703 153.164 86.1237 154.275C81.1601 155.842 76.7924 158.888 73.6049 163.008C70.319 167.389 68.8991 172.895 69.6558 178.321C70.395 183.047 72.896 187.317 76.6546 190.27L78.0057 189.221Z" fill="#2F2E41"/>
<path d="M298.236 413.651C293.609 411.634 289.515 408.567 286.275 404.693C283.035 400.82 280.738 396.245 279.566 391.33C278.394 386.416 278.379 381.295 279.522 376.374C280.664 371.452 282.934 366.864 286.15 362.971C282.421 365.698 279.313 369.188 277.033 373.209C274.754 377.231 273.354 381.692 272.928 386.296C272.501 390.901 273.058 395.543 274.56 399.916C276.063 404.289 278.477 408.291 281.642 411.659C284.808 415.026 288.652 417.68 292.92 419.445C297.188 421.211 301.783 422.047 306.398 421.899C311.014 421.75 315.545 420.621 319.691 418.585C323.838 416.549 327.504 413.653 330.447 410.089C325.857 413.449 320.467 415.546 314.816 416.171C309.164 416.796 303.448 415.927 298.236 413.651Z" fill="#3F3D56"/>
</g>
<defs>
<clipPath id="clip0_46_51">
<rect width="598" height="422" fill="white" transform="translate(0 0.5)"/>
</clipPath>
</defs>
</svg>
