<svg width="594" height="429" viewBox="0 0 594 429" fill="none" xmlns="http://www.w3.org/2000/svg">
<g clip-path="url(#clip0_33_12)">
<path d="M593.142 425.71H0.858382C0.630725 425.71 0.412391 425.62 0.251413 425.459C0.0904357 425.298 0 425.079 0 424.852C0 424.624 0.0904357 424.406 0.251413 424.245C0.412391 424.084 0.630725 423.994 0.858382 423.994H593.142C593.369 423.994 593.588 424.084 593.749 424.245C593.91 424.406 594 424.624 594 424.852C594 425.079 593.91 425.298 593.749 425.459C593.588 425.62 593.369 425.71 593.142 425.71Z" fill="#CCCCCC"/>
<path d="M534.518 276.036H186.015C184.535 276.036 183.116 276.624 182.07 277.67C181.023 278.716 180.436 280.135 180.436 281.615C180.436 283.094 181.023 284.513 182.07 285.559C183.116 286.605 184.535 287.193 186.015 287.193H195.886V420.645C195.886 422.124 196.474 423.543 197.521 424.59C198.567 425.636 199.986 426.223 201.466 426.223C202.946 426.223 204.365 425.636 205.411 424.59C206.458 423.543 207.045 422.124 207.045 420.645L207.13 287.193H512.629V420.645C512.629 422.124 513.217 423.543 514.263 424.59C515.31 425.636 516.729 426.223 518.209 426.223C519.688 426.223 521.108 425.636 522.154 424.59C523.2 423.543 523.788 422.124 523.788 420.645V290.135L525.411 287.193H534.518C535.998 287.193 537.417 286.605 538.463 285.559C539.51 284.513 540.097 283.094 540.097 281.615C540.097 280.135 539.51 278.716 538.463 277.67C537.417 276.624 535.998 276.036 534.518 276.036Z" fill="#CCCCCC"/>
<path d="M379.228 278.956H273.663C271.619 278.953 269.659 278.141 268.213 276.696C266.768 275.25 265.955 273.291 265.953 271.247V213.139C265.955 211.095 266.768 209.136 268.213 207.691C269.659 206.246 271.619 205.433 273.663 205.43H379.228C381.272 205.433 383.232 206.246 384.677 207.691C386.122 209.136 386.935 211.095 386.938 213.139V271.247C386.935 273.291 386.122 275.25 384.677 276.696C383.232 278.141 381.272 278.953 379.228 278.956Z" fill="#3F3D56"/>
<path d="M379.227 211.363H273.663C273.192 211.364 272.741 211.551 272.408 211.884C272.075 212.217 271.887 212.669 271.886 213.14V271.249C271.887 271.72 272.075 272.171 272.408 272.504C272.741 272.837 273.192 273.024 273.663 273.025H379.227C379.698 273.024 380.15 272.837 380.483 272.504C380.816 272.171 381.003 271.72 381.004 271.249V213.14C381.003 212.669 380.816 212.217 380.483 211.884C380.15 211.551 379.698 211.364 379.227 211.363Z" fill="white"/>
<path d="M335.449 252.504C335.449 252.504 322.811 249.593 315.861 254.93C308.91 260.268 324.707 272.399 324.707 272.399L335.449 252.504Z" fill="#2F2E41"/>
<path d="M327.064 247.003C333.648 247.003 338.985 241.667 338.985 235.085C338.985 228.503 333.648 223.167 327.064 223.167C320.481 223.167 315.144 228.503 315.144 235.085C315.144 241.667 320.481 247.003 327.064 247.003Z" fill="#A0616A"/>
<path d="M317.846 218.355C318.641 217.006 319.794 215.903 321.176 215.167C322.558 214.432 324.117 214.093 325.68 214.188C327.315 214.393 328.911 214.839 330.415 215.513L338.207 218.552C340.224 219.338 342.432 220.301 343.307 222.281C344.119 224.118 343.514 226.239 342.9 228.152L339.985 237.243C339.662 235.186 339.107 233.171 338.332 231.238C337.545 229.292 336.122 227.669 334.294 226.634C332.27 225.596 329.884 225.618 327.612 225.727C324.394 225.882 320.895 226.291 318.608 228.561C317.394 229.85 316.572 231.456 316.235 233.194C315.904 234.923 315.738 236.679 315.738 238.44C314.418 236.171 313.306 233.789 312.416 231.32C311.684 229.482 311.267 227.534 311.182 225.558C311.106 223.564 311.767 221.612 313.04 220.076C313.686 219.325 314.529 218.77 315.474 218.473C316.419 218.175 317.429 218.148 318.388 218.393L317.846 218.355Z" fill="#2F2E41"/>
<path d="M355.527 262.839C355.415 262.436 355.187 262.075 354.871 261.802C354.555 261.529 354.165 261.355 353.75 261.302C353.723 261.283 353.694 261.266 353.664 261.251L335.869 251.28C335.361 250.995 334.762 250.917 334.198 251.063C333.634 251.208 333.148 251.565 332.84 252.059L327.973 259.938L320.643 252.609L320.526 252.492C320.15 252.116 319.653 251.884 319.123 251.838C318.593 251.792 318.064 251.934 317.628 252.239L303.003 262.478C302.977 262.478 302.951 262.487 302.926 262.487C302.226 262.603 301.586 262.955 301.114 263.484C300.641 264.013 300.362 264.688 300.325 265.396L299.947 273.026H358.351L355.527 262.839Z" fill="#6610F2"/>
<path d="M388.124 271.84H376.856C376.856 271.526 376.731 271.224 376.508 271.002C376.286 270.779 375.984 270.655 375.67 270.655H372.111C371.797 270.655 371.495 270.779 371.272 271.002C371.05 271.224 370.925 271.526 370.925 271.84H367.367C367.367 271.526 367.242 271.224 367.019 271.002C366.797 270.779 366.495 270.655 366.18 270.655H362.622C362.308 270.655 362.006 270.779 361.783 271.002C361.561 271.224 361.436 271.526 361.436 271.84H357.878C357.878 271.526 357.753 271.224 357.53 271.002C357.308 270.779 357.006 270.655 356.691 270.655H353.133C352.818 270.655 352.517 270.779 352.294 271.002C352.072 271.224 351.947 271.526 351.947 271.84H348.389C348.389 271.526 348.264 271.224 348.041 271.002C347.819 270.779 347.517 270.655 347.202 270.655H343.644C343.33 270.655 343.028 270.779 342.805 271.002C342.583 271.224 342.458 271.526 342.458 271.84H338.9C338.9 271.526 338.775 271.224 338.552 271.002C338.33 270.779 338.028 270.655 337.713 270.655H334.155C333.84 270.655 333.539 270.779 333.316 271.002C333.094 271.224 332.969 271.526 332.969 271.84H329.411C329.411 271.526 329.286 271.224 329.063 271.002C328.841 270.779 328.539 270.655 328.224 270.655H324.666C324.351 270.655 324.05 270.779 323.827 271.002C323.605 271.224 323.48 271.526 323.48 271.84H319.922C319.922 271.526 319.797 271.224 319.574 271.002C319.352 270.779 319.05 270.655 318.735 270.655H315.177C314.862 270.655 314.561 270.779 314.338 271.002C314.116 271.224 313.991 271.526 313.991 271.84H310.433C310.433 271.526 310.308 271.224 310.085 271.002C309.863 270.779 309.561 270.655 309.246 270.655H305.688C305.373 270.655 305.072 270.779 304.849 271.002C304.627 271.224 304.502 271.526 304.502 271.84H300.943C300.943 271.526 300.819 271.224 300.596 271.002C300.374 270.779 300.072 270.655 299.757 270.655H296.199C295.884 270.655 295.583 270.779 295.36 271.002C295.138 271.224 295.013 271.526 295.013 271.84H291.454C291.454 271.526 291.329 271.224 291.107 271.002C290.885 270.779 290.583 270.655 290.268 270.655H286.71C286.395 270.655 286.094 270.779 285.871 271.002C285.649 271.224 285.524 271.526 285.524 271.84H281.965C281.965 271.526 281.841 271.224 281.618 271.002C281.396 270.779 281.094 270.655 280.779 270.655H277.221C276.906 270.655 276.605 270.779 276.382 271.002C276.16 271.224 276.035 271.526 276.035 271.84H264.767C263.824 271.842 262.92 272.217 262.254 272.884C261.588 273.551 261.214 274.455 261.214 275.398C261.214 276.341 261.588 277.245 262.254 277.912C262.92 278.579 263.824 278.954 264.767 278.956H388.124C389.068 278.956 389.973 278.581 390.64 277.914C391.307 277.247 391.682 276.342 391.682 275.398C391.682 274.455 391.307 273.55 390.64 272.882C389.973 272.215 389.068 271.84 388.124 271.84Z" fill="#3F3D56"/>
<path d="M246.423 251.18V274.803H187.227C185.641 274.858 184.061 274.593 182.579 274.025C181.098 273.456 179.746 272.595 178.604 271.492C177.463 270.39 176.555 269.069 175.935 267.609C175.315 266.148 174.995 264.578 174.995 262.991C174.995 261.405 175.315 259.834 175.935 258.374C176.555 256.913 177.463 255.593 178.604 254.49C179.746 253.388 181.098 252.527 182.579 251.958C184.061 251.389 185.641 251.125 187.227 251.18H246.423Z" fill="#F2F2F2"/>
<path d="M247.877 274.621C247.877 274.862 247.782 275.093 247.611 275.263C247.441 275.434 247.21 275.53 246.969 275.53H186.173C182.871 275.53 179.704 274.218 177.37 271.884C175.035 269.55 173.723 266.383 173.723 263.082C173.723 259.781 175.035 256.615 177.37 254.281C179.704 251.946 182.871 250.635 186.173 250.635H246.969C247.21 250.635 247.441 250.731 247.611 250.901C247.782 251.071 247.877 251.302 247.877 251.543C247.877 251.784 247.782 252.015 247.611 252.186C247.441 252.356 247.21 252.452 246.969 252.452H186.173C183.355 252.454 180.653 253.576 178.661 255.569C176.669 257.562 175.55 260.265 175.55 263.082C175.55 265.9 176.669 268.602 178.661 270.596C180.653 272.589 183.355 273.71 186.173 273.713H246.969C247.21 273.713 247.441 273.808 247.611 273.979C247.781 274.149 247.877 274.38 247.877 274.621Z" fill="#6610F2"/>
<path d="M246.423 256.631H182.811C182.787 256.631 182.763 256.627 182.741 256.618C182.719 256.609 182.698 256.595 182.681 256.579C182.664 256.562 182.651 256.542 182.642 256.519C182.632 256.497 182.628 256.474 182.628 256.45C182.628 256.426 182.632 256.402 182.642 256.38C182.651 256.358 182.664 256.338 182.681 256.321C182.698 256.304 182.719 256.29 182.741 256.281C182.763 256.272 182.787 256.268 182.811 256.268H246.423C246.471 256.268 246.517 256.288 246.551 256.322C246.585 256.356 246.604 256.402 246.604 256.45C246.604 256.498 246.585 256.544 246.551 256.578C246.517 256.612 246.471 256.631 246.423 256.631Z" fill="#CCCCCC"/>
<path d="M246.423 260.993H182.811C182.787 260.993 182.763 260.988 182.741 260.979C182.719 260.97 182.698 260.957 182.681 260.94C182.664 260.923 182.651 260.903 182.642 260.881C182.632 260.858 182.628 260.835 182.628 260.811C182.628 260.787 182.632 260.763 182.642 260.741C182.651 260.719 182.664 260.699 182.681 260.682C182.698 260.665 182.719 260.652 182.741 260.643C182.763 260.633 182.787 260.629 182.811 260.629H246.423C246.471 260.629 246.517 260.649 246.551 260.683C246.585 260.717 246.604 260.763 246.604 260.811C246.604 260.859 246.585 260.905 246.551 260.939C246.517 260.973 246.471 260.992 246.423 260.993Z" fill="#CCCCCC"/>
<path d="M246.423 265.354H182.811C182.787 265.354 182.763 265.349 182.741 265.34C182.719 265.331 182.698 265.318 182.681 265.301C182.664 265.284 182.651 265.264 182.642 265.242C182.632 265.22 182.628 265.196 182.628 265.172C182.628 265.148 182.632 265.124 182.642 265.102C182.651 265.08 182.664 265.06 182.681 265.043C182.698 265.026 182.719 265.013 182.741 265.004C182.763 264.995 182.787 264.99 182.811 264.99H246.423C246.471 264.991 246.517 265.01 246.551 265.044C246.585 265.078 246.604 265.124 246.604 265.172C246.604 265.22 246.585 265.266 246.551 265.3C246.517 265.334 246.471 265.353 246.423 265.354Z" fill="#CCCCCC"/>
<path d="M246.423 269.715H182.811C182.787 269.715 182.763 269.71 182.741 269.701C182.719 269.692 182.698 269.679 182.681 269.662C182.664 269.645 182.651 269.625 182.642 269.603C182.632 269.581 182.628 269.557 182.628 269.533C182.628 269.509 182.632 269.485 182.642 269.463C182.651 269.441 182.664 269.421 182.681 269.404C182.698 269.387 182.719 269.374 182.741 269.365C182.763 269.356 182.787 269.351 182.811 269.351H246.423C246.471 269.352 246.517 269.371 246.551 269.405C246.585 269.439 246.604 269.485 246.604 269.533C246.604 269.581 246.585 269.627 246.551 269.661C246.517 269.695 246.471 269.714 246.423 269.715Z" fill="#CCCCCC"/>
<path d="M235.264 226.292V249.915H176.068C174.482 249.97 172.902 249.705 171.42 249.136C169.939 248.568 168.587 247.707 167.445 246.604C166.304 245.502 165.396 244.181 164.776 242.721C164.156 241.26 163.836 239.69 163.836 238.103C163.836 236.517 164.156 234.946 164.776 233.486C165.396 232.025 166.304 230.704 167.445 229.602C168.587 228.5 169.939 227.639 171.42 227.07C172.902 226.501 174.482 226.237 176.068 226.292H235.264Z" fill="#F2F2F2"/>
<path d="M236.718 249.733C236.718 249.974 236.623 250.205 236.452 250.375C236.282 250.546 236.051 250.641 235.81 250.642H175.014C173.379 250.642 171.76 250.32 170.25 249.694C168.739 249.068 167.367 248.152 166.211 246.996C165.055 245.84 164.138 244.468 163.512 242.958C162.886 241.447 162.564 239.829 162.564 238.194C162.564 236.559 162.886 234.941 163.512 233.431C164.138 231.92 165.055 230.548 166.211 229.392C167.367 228.237 168.739 227.32 170.25 226.694C171.76 226.069 173.379 225.747 175.014 225.747H235.81C236.051 225.747 236.282 225.842 236.452 226.013C236.623 226.183 236.718 226.414 236.718 226.655C236.718 226.896 236.623 227.127 236.452 227.298C236.282 227.468 236.051 227.564 235.81 227.564H175.014C172.196 227.566 169.494 228.687 167.502 230.681C165.51 232.674 164.391 235.376 164.391 238.194C164.391 241.012 165.51 243.714 167.502 245.707C169.494 247.701 172.196 248.822 175.014 248.824H235.81C236.051 248.824 236.282 248.92 236.452 249.091C236.623 249.261 236.718 249.492 236.718 249.733Z" fill="#3F3D56"/>
<path d="M235.264 231.743H171.652C171.628 231.743 171.604 231.739 171.582 231.73C171.56 231.721 171.539 231.707 171.522 231.69C171.505 231.674 171.492 231.653 171.483 231.631C171.474 231.609 171.469 231.585 171.469 231.561C171.469 231.538 171.474 231.514 171.483 231.492C171.492 231.47 171.505 231.449 171.522 231.433C171.539 231.416 171.56 231.402 171.582 231.393C171.604 231.384 171.628 231.38 171.652 231.38H235.264C235.312 231.38 235.358 231.399 235.392 231.433C235.426 231.467 235.445 231.514 235.445 231.561C235.445 231.609 235.426 231.655 235.392 231.69C235.358 231.724 235.312 231.743 235.264 231.743Z" fill="#CCCCCC"/>
<path d="M235.264 236.104H171.652C171.628 236.105 171.604 236.1 171.582 236.091C171.56 236.082 171.539 236.068 171.522 236.052C171.505 236.035 171.492 236.015 171.483 235.992C171.474 235.97 171.469 235.947 171.469 235.923C171.469 235.899 171.474 235.875 171.483 235.853C171.492 235.831 171.505 235.811 171.522 235.794C171.539 235.777 171.56 235.763 171.582 235.754C171.604 235.745 171.628 235.741 171.652 235.741H235.264C235.312 235.741 235.358 235.761 235.392 235.795C235.426 235.829 235.445 235.875 235.445 235.923C235.445 235.971 235.426 236.017 235.392 236.051C235.358 236.085 235.312 236.104 235.264 236.104Z" fill="#CCCCCC"/>
<path d="M235.264 240.466H171.652C171.628 240.466 171.604 240.461 171.582 240.452C171.56 240.443 171.539 240.43 171.522 240.413C171.505 240.396 171.492 240.376 171.483 240.354C171.474 240.332 171.469 240.308 171.469 240.284C171.469 240.26 171.474 240.236 171.483 240.214C171.492 240.192 171.505 240.172 171.522 240.155C171.539 240.138 171.56 240.125 171.582 240.116C171.604 240.107 171.628 240.102 171.652 240.102H235.264C235.312 240.102 235.358 240.122 235.392 240.156C235.426 240.19 235.445 240.236 235.445 240.284C235.445 240.332 235.426 240.378 235.392 240.412C235.358 240.446 235.312 240.465 235.264 240.466Z" fill="#CCCCCC"/>
<path d="M235.264 244.827H171.652C171.628 244.827 171.604 244.822 171.582 244.813C171.56 244.804 171.539 244.791 171.522 244.774C171.505 244.757 171.492 244.737 171.483 244.715C171.474 244.693 171.469 244.669 171.469 244.645C171.469 244.621 171.474 244.597 171.483 244.575C171.492 244.553 171.505 244.533 171.522 244.516C171.539 244.499 171.56 244.486 171.582 244.477C171.604 244.468 171.628 244.463 171.652 244.463H235.264C235.312 244.464 235.358 244.483 235.392 244.517C235.426 244.551 235.445 244.597 235.445 244.645C235.445 244.693 235.426 244.739 235.392 244.773C235.358 244.807 235.312 244.826 235.264 244.827Z" fill="#CCCCCC"/>
<path d="M304.127 358.769V338.172C304.127 337.262 303.765 336.389 303.122 335.745C302.478 335.101 301.604 334.74 300.694 334.74H222.581C221.67 334.74 220.797 335.101 220.153 335.745C219.509 336.389 219.147 337.262 219.147 338.172V358.769H304.127Z" fill="#CCCCCC"/>
<path d="M304.127 366.493H219.147V393.098H304.127V366.493Z" fill="#CCCCCC"/>
<path d="M219.147 400.822V421.419C219.147 422.329 219.509 423.202 220.153 423.846C220.797 424.49 221.67 424.852 222.581 424.852H300.694C301.604 424.852 302.478 424.49 303.122 423.846C303.765 423.202 304.127 422.329 304.127 421.419V400.822H219.147Z" fill="#CCCCCC"/>
<path d="M261.208 350.187C262.63 350.187 263.783 349.035 263.783 347.613C263.783 346.191 262.63 345.038 261.208 345.038C259.786 345.038 258.633 346.191 258.633 347.613C258.633 349.035 259.786 350.187 261.208 350.187Z" fill="white"/>
<path d="M261.208 384.516C262.63 384.516 263.783 383.363 263.783 381.941C263.783 380.519 262.63 379.367 261.208 379.367C259.786 379.367 258.633 380.519 258.633 381.941C258.633 383.363 259.786 384.516 261.208 384.516Z" fill="white"/>
<path d="M261.346 418.117C262.768 418.117 263.921 416.965 263.921 415.543C263.921 414.121 262.768 412.968 261.346 412.968C259.924 412.968 258.771 414.121 258.771 415.543C258.771 416.965 259.924 418.117 261.346 418.117Z" fill="white"/>
<path d="M294.493 311.255V334.878H235.297C233.711 334.933 232.13 334.668 230.648 334.099C229.167 333.531 227.815 332.67 226.674 331.567C225.532 330.465 224.624 329.144 224.004 327.684C223.384 326.223 223.065 324.653 223.065 323.066C223.065 321.48 223.384 319.909 224.004 318.449C224.624 316.988 225.532 315.667 226.674 314.565C227.815 313.463 229.167 312.602 230.648 312.033C232.13 311.464 233.711 311.2 235.297 311.255H294.493Z" fill="#F2F2F2"/>
<path d="M295.947 334.696C295.947 334.937 295.851 335.168 295.681 335.338C295.51 335.509 295.279 335.604 295.038 335.604H234.242C232.607 335.606 230.987 335.285 229.475 334.66C227.963 334.035 226.59 333.118 225.432 331.962C224.275 330.806 223.357 329.434 222.731 327.923C222.105 326.412 221.782 324.793 221.782 323.157C221.782 321.522 222.105 319.902 222.731 318.391C223.357 316.88 224.275 315.508 225.432 314.352C226.59 313.196 227.963 312.279 229.475 311.654C230.987 311.029 232.607 310.708 234.242 310.71H295.038C295.279 310.71 295.51 310.805 295.681 310.976C295.851 311.146 295.947 311.377 295.947 311.618C295.947 311.859 295.851 312.09 295.681 312.261C295.51 312.431 295.279 312.527 295.038 312.527H234.242C231.424 312.529 228.722 313.65 226.73 315.644C224.738 317.637 223.62 320.339 223.62 323.157C223.62 325.975 224.738 328.677 226.73 330.67C228.722 332.664 231.424 333.785 234.242 333.787H295.038C295.279 333.787 295.51 333.883 295.68 334.054C295.851 334.224 295.947 334.455 295.947 334.696Z" fill="#3F3D56"/>
<path d="M294.493 316.706H230.88C230.856 316.706 230.832 316.702 230.81 316.693C230.788 316.684 230.768 316.67 230.751 316.653C230.734 316.636 230.72 316.616 230.711 316.594C230.702 316.572 230.697 316.548 230.697 316.524C230.697 316.5 230.702 316.477 230.711 316.455C230.72 316.432 230.734 316.412 230.751 316.396C230.768 316.379 230.788 316.365 230.81 316.356C230.832 316.347 230.856 316.343 230.88 316.343H294.493C294.541 316.343 294.587 316.362 294.62 316.396C294.654 316.43 294.673 316.476 294.673 316.524C294.673 316.572 294.654 316.618 294.62 316.652C294.587 316.687 294.541 316.706 294.493 316.706Z" fill="#CCCCCC"/>
<path d="M294.493 321.067H230.88C230.856 321.067 230.832 321.063 230.81 321.054C230.788 321.045 230.768 321.031 230.751 321.015C230.734 320.998 230.72 320.978 230.711 320.955C230.702 320.933 230.697 320.91 230.697 320.886C230.697 320.862 230.702 320.838 230.711 320.816C230.72 320.794 230.734 320.774 230.751 320.757C230.768 320.74 230.788 320.726 230.81 320.717C230.832 320.708 230.856 320.704 230.88 320.704H294.493C294.541 320.704 294.587 320.723 294.62 320.758C294.654 320.792 294.673 320.838 294.673 320.886C294.673 320.934 294.654 320.98 294.62 321.014C294.587 321.048 294.541 321.067 294.493 321.067Z" fill="#CCCCCC"/>
<path d="M294.493 325.428H230.88C230.856 325.429 230.832 325.424 230.81 325.415C230.788 325.406 230.768 325.393 230.751 325.376C230.734 325.359 230.72 325.339 230.711 325.317C230.702 325.294 230.697 325.271 230.697 325.247C230.697 325.223 230.702 325.199 230.711 325.177C230.72 325.155 230.734 325.135 230.751 325.118C230.768 325.101 230.788 325.088 230.81 325.078C230.832 325.069 230.856 325.065 230.88 325.065H294.493C294.541 325.065 294.587 325.085 294.62 325.119C294.654 325.153 294.673 325.199 294.673 325.247C294.673 325.295 294.654 325.341 294.62 325.375C294.587 325.409 294.541 325.428 294.493 325.428Z" fill="#CCCCCC"/>
<path d="M294.493 329.79H230.88C230.856 329.79 230.832 329.785 230.81 329.776C230.788 329.767 230.768 329.754 230.751 329.737C230.734 329.72 230.72 329.7 230.711 329.678C230.702 329.656 230.697 329.632 230.697 329.608C230.697 329.584 230.702 329.56 230.711 329.538C230.72 329.516 230.734 329.496 230.751 329.479C230.768 329.462 230.788 329.449 230.81 329.44C230.832 329.431 230.856 329.426 230.88 329.426H294.493C294.541 329.426 294.587 329.446 294.62 329.48C294.654 329.514 294.673 329.56 294.673 329.608C294.673 329.656 294.654 329.702 294.62 329.736C294.587 329.77 294.541 329.789 294.493 329.79Z" fill="#CCCCCC"/>
<path d="M214.69 157.071V6.45499C214.692 4.74362 215.373 3.1029 216.583 1.89278C217.794 0.682656 219.435 0.00194663 221.146 0H340.228C341.94 0.00195796 343.581 0.682671 344.791 1.89279C346.002 3.10291 346.683 4.74362 346.685 6.45499V157.071C346.683 158.782 346.002 160.423 344.791 161.633C343.581 162.843 341.94 163.524 340.228 163.526H221.146C219.435 163.524 217.794 162.843 216.583 161.633C215.373 160.423 214.692 158.782 214.69 157.071ZM221.146 1.43444C219.815 1.43593 218.539 1.96536 217.597 2.90657C216.656 3.84778 216.126 5.12391 216.125 6.45499V157.071C216.126 158.402 216.656 159.678 217.597 160.62C218.539 161.561 219.815 162.09 221.146 162.092H340.228C341.56 162.09 342.836 161.561 343.777 160.62C344.719 159.678 345.248 158.402 345.25 157.071V6.45499C345.248 5.12391 344.719 3.84778 343.777 2.90657C342.836 1.96536 341.56 1.43594 340.228 1.43444H221.146Z" fill="#E6E6E6"/>
<path d="M287.365 69.1699V38.2436C287.366 37.388 287.706 36.5676 288.312 35.9625C288.917 35.3574 289.737 35.0171 290.593 35.0161H316.806C317.661 35.0171 318.482 35.3574 319.087 35.9625C319.692 36.5676 320.033 37.388 320.034 38.2436V69.1699C320.033 70.0256 319.692 70.8459 319.087 71.451C318.482 72.0561 317.661 72.3964 316.806 72.3974H290.593C289.737 72.3964 288.917 72.0561 288.312 71.451C287.706 70.8459 287.366 70.0256 287.365 69.1699Z" fill="#6610F2"/>
<path d="M236.432 83.5143V52.5881C236.433 51.7324 236.774 50.912 237.379 50.3069C237.984 49.7019 238.805 49.3615 239.661 49.3606H265.873C266.729 49.3615 267.549 49.7019 268.155 50.3069C268.76 50.912 269.1 51.7324 269.101 52.5881V83.5143C269.1 84.37 268.76 85.1904 268.155 85.7955C267.549 86.4005 266.729 86.7408 265.873 86.7418H239.661C238.805 86.7408 237.984 86.4005 237.379 85.7954C236.774 85.1904 236.433 84.37 236.432 83.5143Z" fill="#CCCCCC"/>
<path d="M277.322 127.265V96.3384C277.323 95.4827 277.663 94.6624 278.269 94.0573C278.874 93.4522 279.694 93.1119 280.55 93.111H306.763C307.618 93.1119 308.439 93.4522 309.044 94.0573C309.649 94.6624 309.99 95.4827 309.991 96.3384V127.265C309.99 128.12 309.649 128.941 309.044 129.546C308.439 130.151 307.618 130.491 306.763 130.492H280.55C279.694 130.491 278.874 130.151 278.269 129.546C277.663 128.941 277.323 128.12 277.322 127.265Z" fill="#FF6584"/>
<path d="M433.966 268.657H406.996C406.74 268.657 406.487 268.716 406.258 268.829L399.45 272.236C399.226 272.331 399.035 272.49 398.901 272.693C398.767 272.896 398.695 273.134 398.695 273.377C398.695 273.621 398.767 273.859 398.901 274.062C399.035 274.265 399.226 274.424 399.45 274.519L406.258 277.926C406.487 278.039 406.74 278.098 406.996 278.098H433.966C434.338 278.119 434.703 277.993 434.982 277.748C435.262 277.502 435.433 277.156 435.46 276.784V269.97C435.433 269.599 435.262 269.253 434.982 269.007C434.703 268.761 434.338 268.636 433.966 268.657Z" fill="#3F3D56"/>
<path d="M435.46 269.97V276.784C435.433 277.156 435.262 277.502 434.982 277.747C434.703 277.993 434.337 278.119 433.966 278.098H428.593V268.657H433.966C434.337 268.636 434.703 268.761 434.982 269.007C435.262 269.253 435.433 269.599 435.46 269.97Z" fill="#6610F2"/>
<path d="M433.763 217.679C434.985 217.152 436.304 216.889 437.634 216.907C438.965 216.925 440.276 217.224 441.483 217.785C442.69 218.345 443.764 219.154 444.637 220.158C445.509 221.163 446.159 222.34 446.545 223.613C446.665 224.017 446.757 224.429 446.82 224.845L484.535 243.544L493.263 237.761L504.124 250.261L490.796 261.083C489.194 262.374 487.217 263.114 485.16 263.194C483.104 263.273 481.076 262.687 479.379 261.523L441.113 235.066C440.828 235.187 440.537 235.293 440.242 235.384C438.968 235.769 437.627 235.88 436.307 235.711C434.988 235.542 433.718 235.096 432.583 234.403C431.447 233.709 430.471 232.783 429.719 231.686C428.966 230.589 428.454 229.345 428.215 228.037C428.145 227.657 428.098 227.273 428.076 226.887C427.97 224.955 428.458 223.037 429.475 221.391C430.491 219.745 431.988 218.45 433.763 217.679Z" fill="#FFB8B8"/>
<path d="M512.317 332.807H471.107C471.107 333.992 428.634 334.953 428.634 334.953C427.967 335.455 427.36 336.03 426.823 336.669C425.21 338.593 424.328 341.025 424.333 343.535V345.251C424.334 348.096 425.465 350.824 427.477 352.836C429.489 354.847 432.218 355.978 435.063 355.979H512.317C515.162 355.977 517.89 354.846 519.902 352.834C521.913 350.823 523.045 348.096 523.047 345.251V343.535C523.043 340.691 521.911 337.965 519.9 335.954C517.889 333.943 515.162 332.811 512.317 332.807Z" fill="#3F3D56"/>
<path d="M467.489 427.643H478.648V355.553H467.489V427.643Z" fill="#3F3D56"/>
<path d="M435.729 427.251C435.729 428.456 452.639 427.717 473.498 427.717C494.357 427.717 511.267 428.456 511.267 427.251C511.267 426.045 494.357 416.486 473.498 416.486C452.639 416.486 435.729 426.045 435.729 427.251Z" fill="#3F3D56"/>
<path d="M445.803 418.801L435.28 418.8L430.273 391.512L445.805 391.513L445.803 418.801Z" fill="#FFB8B8"/>
<path d="M448.487 429L414.555 428.999V428.57C414.555 426.836 414.896 425.118 415.56 423.516C416.224 421.914 417.197 420.459 418.423 419.232C419.649 418.006 421.105 417.034 422.708 416.37C424.31 415.706 426.028 415.365 427.762 415.365H427.763L448.488 415.366L448.487 429Z" fill="#2F2E41"/>
<path d="M430.063 401.879L409.084 354.842C407.332 350.878 407.138 346.399 408.541 342.299C409.944 338.198 412.84 334.776 416.653 332.714L462.159 308.317L482.924 306.551L502.079 304.811L502.217 305.044C502.394 305.343 506.512 312.455 503.728 320.253C501.617 326.169 496.124 330.789 487.403 333.986C467.047 341.449 443.532 347.827 434.367 350.222C433.962 350.326 433.583 350.514 433.256 350.774C432.929 351.034 432.66 351.361 432.469 351.732C432.276 352.099 432.162 352.502 432.133 352.916C432.104 353.329 432.161 353.744 432.3 354.134L451.791 397.916C451.995 398.471 452.068 399.066 452.005 399.654C451.943 400.242 451.746 400.808 451.43 401.307C451.114 401.807 450.687 402.228 450.183 402.537C449.679 402.846 449.11 403.035 448.521 403.09L433.957 404.15C433.834 404.162 433.711 404.168 433.588 404.168C432.842 404.168 432.112 403.951 431.487 403.545C430.861 403.139 430.367 402.56 430.063 401.879Z" fill="#2F2E41"/>
<path d="M450.953 418.801L440.43 418.8L435.423 391.512L450.955 391.513L450.953 418.801Z" fill="#FFB8B8"/>
<path d="M453.637 429L419.705 428.999V428.57C419.705 426.836 420.047 425.118 420.71 423.516C421.374 421.914 422.347 420.459 423.573 419.232C424.8 418.006 426.256 417.034 427.858 416.37C429.461 415.706 431.178 415.365 432.913 415.365H432.913L453.638 415.366L453.637 429Z" fill="#2F2E41"/>
<path d="M436.072 404.454L415.092 357.417C413.341 353.453 413.147 348.974 414.55 344.873C415.953 340.772 418.849 337.35 422.662 335.289L468.168 310.892L488.933 309.126L508.088 307.385L508.226 307.619C508.402 307.917 512.521 315.03 509.737 322.828C507.625 328.743 502.133 333.364 493.412 336.561C473.056 344.023 449.54 350.401 440.375 352.797C439.97 352.9 439.592 353.088 439.265 353.349C438.937 353.609 438.669 353.936 438.477 354.307C438.285 354.674 438.171 355.077 438.142 355.49C438.113 355.904 438.17 356.319 438.309 356.709L457.8 400.49C458.003 401.046 458.076 401.64 458.014 402.228C457.951 402.816 457.754 403.382 457.438 403.882C457.123 404.382 456.696 404.803 456.192 405.112C455.687 405.421 455.119 405.61 454.53 405.665L439.966 406.725C439.842 406.737 439.719 406.743 439.597 406.743C438.851 406.742 438.121 406.526 437.496 406.12C436.87 405.714 436.376 405.135 436.072 404.454Z" fill="#2F2E41"/>
<path d="M425.615 260.763C416.799 249.038 409.83 236.034 404.949 222.202C404.667 221.374 404.687 220.473 405.006 219.659C405.325 218.845 405.923 218.171 406.693 217.757L436.861 201.595C437.349 201.332 437.891 201.183 438.445 201.161C439 201.138 439.552 201.242 440.059 201.465C440.577 201.69 441.036 202.03 441.402 202.459C441.768 202.888 442.031 203.394 442.172 203.941C445.683 217.27 452.284 229.586 461.439 239.892C461.816 240.311 462.092 240.811 462.247 241.353C462.401 241.896 462.43 242.466 462.33 243.021C462.235 243.567 462.016 244.085 461.69 244.533C461.364 244.982 460.941 245.351 460.451 245.611L430.283 261.773C429.511 262.184 428.618 262.309 427.764 262.124C426.909 261.939 426.148 261.456 425.615 260.763Z" fill="#CCCCCC"/>
<path d="M427.674 259.216C427.836 259.419 428.064 259.558 428.318 259.611C428.572 259.663 428.837 259.625 429.066 259.504L459.234 243.342C459.381 243.265 459.508 243.156 459.605 243.023C459.702 242.889 459.767 242.735 459.795 242.572C459.826 242.4 459.817 242.223 459.769 242.055C459.72 241.887 459.634 241.733 459.516 241.604C450.09 230.994 443.296 218.316 439.681 204.593C439.639 204.424 439.559 204.266 439.446 204.133C439.333 204 439.191 203.895 439.03 203.825C438.879 203.758 438.715 203.726 438.549 203.733C438.384 203.74 438.222 203.785 438.077 203.865L407.91 220.026C407.681 220.15 407.503 220.349 407.406 220.59C407.309 220.831 407.299 221.098 407.378 221.345C412.171 234.93 419.016 247.702 427.674 259.216Z" fill="white"/>
<path d="M525.838 256.452L502.211 265.428L496.443 249.408C495.677 247.281 495.688 244.951 496.474 242.831C497.259 240.711 498.769 238.937 500.737 237.823C502.727 236.695 505.055 236.316 507.3 236.754C509.545 237.193 511.56 238.419 512.979 240.212L525.838 256.452Z" fill="#6610F2"/>
<path d="M465.743 319.925C465.246 319.573 464.829 319.12 464.521 318.595C464.212 318.069 464.019 317.485 463.955 316.879C460.928 288.636 463.036 266.533 470.398 249.308C471.694 246.337 473.647 243.699 476.11 241.591C478.573 239.483 481.482 237.961 484.618 237.139L503.717 236.175L503.816 236.223C508.125 238.333 511.64 241.776 513.839 246.041C516.037 250.306 516.803 255.166 516.021 259.9C509.878 276.088 504.735 292.943 508.658 306.54C508.822 307.109 508.87 307.704 508.799 308.292C508.727 308.879 508.538 309.446 508.242 309.959C507.955 310.454 507.57 310.885 507.11 311.226C506.65 311.567 506.125 311.81 505.568 311.94L469.191 320.592C468.602 320.732 467.99 320.745 467.395 320.63C466.8 320.515 466.237 320.275 465.743 319.925Z" fill="#6610F2"/>
<path d="M497.343 229.043C508.987 229.043 518.426 219.606 518.426 207.965C518.426 196.323 508.987 186.886 497.343 186.886C485.699 186.886 476.26 196.323 476.26 207.965C476.26 219.606 485.699 229.043 497.343 229.043Z" fill="#FFB8B8"/>
<path d="M438.842 224.659L422.411 231.911C421.786 232.186 421.078 232.202 420.441 231.955C419.804 231.709 419.292 231.219 419.015 230.595L418.609 229.675C418.334 229.05 418.318 228.342 418.565 227.705C418.811 227.069 419.301 226.556 419.925 226.28L436.356 219.028C436.981 218.753 437.689 218.737 438.326 218.984C438.962 219.231 439.475 219.72 439.751 220.344L440.158 221.264C440.433 221.889 440.449 222.597 440.202 223.234C439.955 223.87 439.466 224.383 438.842 224.659Z" fill="#CCCCCC"/>
<path d="M444.851 235.816L428.42 243.068C427.795 243.343 427.086 243.359 426.45 243.112C425.813 242.865 425.3 242.376 425.024 241.752L424.618 240.832C424.343 240.207 424.327 239.498 424.573 238.862C424.82 238.226 425.309 237.713 425.933 237.436L442.364 230.185C442.989 229.91 443.698 229.894 444.334 230.141C444.971 230.387 445.484 230.876 445.76 231.501L446.166 232.421C446.441 233.046 446.457 233.754 446.211 234.391C445.964 235.027 445.475 235.54 444.851 235.816Z" fill="#CCCCCC"/>
<path d="M457.522 279.394L420.891 250.501C420.599 250.604 420.302 250.691 420.001 250.763C418.708 251.066 417.366 251.093 416.062 250.843C414.758 250.593 413.522 250.071 412.432 249.312C411.336 248.552 410.414 247.567 409.729 246.422C409.045 245.278 408.612 244 408.461 242.675C408.215 240.556 408.693 238.417 409.816 236.604C410.94 234.791 412.643 233.411 414.649 232.687C415.902 232.238 417.235 232.058 418.561 232.16C419.888 232.262 421.178 232.643 422.347 233.278C423.516 233.913 424.538 234.788 425.345 235.845C426.153 236.902 426.728 238.118 427.032 239.413C427.127 239.823 427.192 240.24 427.229 240.659L463.694 261.692L472.769 256.468L482.821 269.626L468.732 279.667C467.082 280.833 465.101 281.436 463.081 281.386C461.062 281.337 459.112 280.638 457.522 279.394Z" fill="#FFB8B8"/>
<path d="M487.291 273.724L466.391 259.514L476.213 245.606C477.517 243.759 479.433 242.432 481.62 241.861C483.808 241.289 486.128 241.509 488.169 242.482C490.234 243.466 491.879 245.156 492.807 247.246C493.735 249.337 493.884 251.69 493.229 253.881L487.291 273.724Z" fill="#6610F2"/>
<path d="M489.613 204.825C484.195 208.533 477.08 212.345 471.545 208.396C467.911 205.803 466.766 201.002 468.24 196.789C470.89 189.212 478.171 185.876 485.134 183.319C494.185 179.996 504.04 177.351 513.384 179.732C522.728 182.112 530.985 191.157 529.299 200.649C527.942 208.282 520.741 214.633 521.763 222.318C522.792 230.053 531.492 234.124 539.172 235.506C546.853 236.888 555.447 237.332 560.967 242.848C568.009 249.884 566.25 262.461 559.625 269.89C552.999 277.319 543 280.686 533.312 282.976C520.475 286.009 506.591 287.603 494.4 282.569C482.208 277.535 472.721 263.985 476.252 251.279C477.744 245.912 481.258 241.376 484.655 236.96C488.051 232.544 491.49 227.927 492.786 222.509C493.865 217.994 493.066 212.752 490.072 209.365C489.527 208.773 489.184 208.023 489.092 207.223C489.001 206.423 489.165 205.615 489.561 204.914L489.613 204.825Z" fill="#2F2E41"/>
<path d="M93.6255 307.238C88.1929 309.148 82.3601 309.626 76.6889 308.627C71.0178 307.628 65.6995 305.186 61.2464 301.536C49.9055 292.019 46.3497 276.34 43.4566 261.822C40.6041 247.508 37.7516 233.195 34.8992 218.881L52.815 231.215C65.699 240.084 78.8733 249.238 87.7941 262.086C96.7149 274.933 100.609 292.471 93.4413 306.372" fill="#E6E6E6"/>
<path d="M92.094 359.228C93.9074 346.022 95.7719 332.647 94.5 319.299C93.3704 307.446 89.7532 295.868 82.3892 286.375C78.4804 281.345 73.7241 277.036 68.3342 273.641C66.9287 272.754 65.6351 274.981 67.0345 275.864C76.3606 281.757 83.574 290.459 87.6347 300.715C92.1196 312.12 92.8398 324.553 92.067 336.668C91.5996 343.995 90.609 351.274 89.6108 358.543C89.5322 358.872 89.5812 359.218 89.7482 359.512C89.9151 359.806 90.1875 360.026 90.5101 360.127C90.8394 360.215 91.1903 360.171 91.4868 360.002C91.7833 359.834 92.0015 359.556 92.094 359.228Z" fill="#F2F2F2"/>
<path d="M74.6285 335.86C72.2986 339.4 69.0959 342.281 65.3291 344.225C61.5622 346.169 57.3582 347.11 53.122 346.958C42.235 346.441 33.1587 338.844 24.9884 331.632L0.822144 310.299L16.8162 309.534C28.3182 308.983 40.1169 308.47 51.0721 312.016C62.0274 315.562 72.1309 324.097 74.1341 335.434" fill="#E6E6E6"/>
<path d="M97.2186 366.819C88.4908 351.379 78.3674 334.219 60.2784 328.734C55.2488 327.214 49.9749 326.67 44.7408 327.13C43.0912 327.272 43.5031 329.815 45.1497 329.673C53.9233 328.944 62.6799 331.261 69.9453 336.231C76.9368 340.989 82.3804 347.604 86.9878 354.619C89.8099 358.916 92.3379 363.395 94.8663 367.868C95.6743 369.297 98.0361 368.265 97.2186 366.819Z" fill="#F2F2F2"/>
<path d="M111.203 383.071C110.909 379.664 109.686 376.403 107.666 373.644C105.647 370.884 102.908 368.731 99.7499 367.42V358.494H84.7755V367.701C81.7724 369.077 79.1879 371.224 77.2854 373.924C75.383 376.624 74.2307 379.78 73.946 383.071L70.4249 423.994H114.724L111.203 383.071Z" fill="#F2F2F2"/>
</g>
<defs>
<clipPath id="clip0_33_12">
<rect width="594" height="429" fill="white"/>
</clipPath>
</defs>
</svg>
