<svg width="503" height="570" viewBox="0 0 503 570" fill="none" xmlns="http://www.w3.org/2000/svg">
<g clip-path="url(#clip0_33_332)">
<path d="M245.117 239.078H318.06C318.297 239.078 318.525 238.984 318.693 238.816C318.861 238.649 318.955 238.421 318.955 238.184C318.955 237.947 318.861 237.72 318.693 237.552C318.525 237.384 318.297 237.29 318.06 237.29H245.117C244.879 237.29 244.651 237.384 244.483 237.552C244.315 237.72 244.221 237.947 244.221 238.184C244.221 238.421 244.315 238.649 244.483 238.816C244.651 238.984 244.879 239.078 245.117 239.078Z" fill="#3F3D56"/>
<path d="M278.722 153.983C277.111 154.801 275.883 156.213 275.3 157.921C274.717 159.628 274.825 161.494 275.599 163.124C275.762 163.453 275.952 163.767 276.167 164.065L262.433 183.953L270.092 194.46L285.954 165.185C287.121 164.2 287.929 162.858 288.251 161.368C288.573 159.877 288.392 158.322 287.736 156.945C287.355 156.165 286.823 155.467 286.172 154.892C285.521 154.317 284.763 153.876 283.941 153.593C283.119 153.311 282.25 153.192 281.382 153.245C280.514 153.298 279.665 153.521 278.884 153.901C278.829 153.928 278.775 153.955 278.722 153.983Z" fill="#FFB6B6"/>
<path d="M197.246 157.992C195.753 158.844 194.461 160.007 193.458 161.402C192.455 162.796 191.765 164.39 191.435 166.075C191.104 167.76 191.141 169.496 191.543 171.165C191.945 172.834 192.702 174.398 193.763 175.749L210.811 197.453L248.557 225.302C248.557 225.302 275.14 202.122 275.353 194.917C275.566 187.712 272.722 186.186 275.566 187.712C278.411 189.238 281.002 188.094 280.025 187.288C279.048 186.483 279.393 186.394 279.985 185.019C280.577 183.644 282.659 177.159 282.659 177.159L272.293 168.714C272.293 168.714 262.617 174.572 261.98 177.327C261.342 180.082 264.824 178.853 261.342 180.082C257.86 181.31 252.711 177.726 256.835 181.616C260.96 185.506 260.829 187.379 257.412 187.671C253.996 187.964 248.602 197.457 248.602 197.457L211.735 159.994C209.881 158.11 207.454 156.892 204.832 156.529C202.211 156.167 199.543 156.682 197.246 157.992Z" fill="#E6E6E6"/>
<path d="M193.541 568.631H80.3397C78.0099 568.628 75.7762 567.703 74.1287 566.059C72.4812 564.414 71.5544 562.185 71.5516 559.86V464.75C71.5544 462.425 72.4812 460.196 74.1287 458.551C75.7762 456.907 78.0099 455.982 80.3397 455.979H193.541C195.871 455.982 198.105 456.907 199.752 458.551C201.4 460.196 202.327 462.425 202.329 464.75V559.86C202.327 562.185 201.4 564.414 199.752 566.059C198.105 567.703 195.871 568.628 193.541 568.631Z" fill="#F2F2F2"/>
<path d="M20.4891 436.563L20.4443 446.412L59.3346 451.275L59.4 436.738L20.4891 436.563Z" fill="#FFB6B6"/>
<path d="M25.0722 434.013L25.9811 450.466L18.9204 450.434L8.0284 466.024C7.49054 466.794 6.72017 467.372 5.82973 467.674C4.93929 467.976 3.9754 467.986 3.07882 467.703C2.18224 467.42 1.39991 466.858 0.846034 466.099C0.292155 465.34 -0.00427232 464.425 4.65315e-05 463.486L0.0891065 443.903L7.08857 440.559L0.110456 439.21L0.144024 431.826L25.0722 434.013Z" fill="#2F2E41"/>
<path d="M345.265 231.277C321.383 225.344 300.879 213.68 284.85 194.427C283.628 193.679 282.753 192.479 282.416 191.088C282.08 189.698 282.31 188.231 283.056 187.01L310.939 141.468C311.687 140.248 312.89 139.375 314.283 139.039C315.676 138.704 317.146 138.933 318.369 139.678L378.785 176.528C380.007 177.276 380.882 178.476 381.218 179.867C381.555 181.257 381.325 182.724 380.579 183.945L352.696 229.487C351.947 230.707 350.745 231.58 349.352 231.916C347.958 232.251 346.489 232.022 345.265 231.277Z" fill="#E6E6E6"/>
<path d="M329.156 216.653C316.582 215.283 303.513 205.252 290.315 192.962C289.171 192.263 288.351 191.138 288.036 189.836C287.721 188.534 287.937 187.16 288.635 186.016L312.598 146.877C313.299 145.735 314.426 144.917 315.731 144.602C317.035 144.288 318.412 144.503 319.558 145.2L373.319 177.992C374.464 178.692 375.283 179.816 375.598 181.119C375.913 182.421 375.698 183.795 374.999 184.939L360.155 209.185C357.032 214.273 352.014 217.916 346.203 219.317C340.391 220.717 334.261 219.759 329.156 216.653Z" fill="white"/>
<path d="M340.182 169.625L321.582 200.195C321.435 200.436 321.242 200.646 321.015 200.813C320.787 200.979 320.529 201.1 320.254 201.167C319.98 201.233 319.695 201.246 319.416 201.203C319.137 201.16 318.869 201.062 318.628 200.916C318.386 200.77 318.176 200.577 318.009 200.35C317.842 200.123 317.722 199.865 317.655 199.591C317.588 199.317 317.576 199.033 317.619 198.754C317.662 198.476 317.76 198.208 317.906 197.968L336.506 167.397C336.653 167.157 336.845 166.947 337.073 166.78C337.301 166.614 337.559 166.493 337.834 166.426C338.108 166.359 338.393 166.347 338.672 166.39C338.951 166.433 339.219 166.53 339.46 166.677C339.702 166.823 339.912 167.015 340.079 167.243C340.245 167.47 340.366 167.728 340.433 168.002C340.5 168.276 340.512 168.56 340.469 168.839C340.426 169.117 340.328 169.384 340.182 169.625Z" fill="#6C63FF"/>
<path d="M348.26 174.522L329.66 205.092C329.364 205.578 328.887 205.926 328.333 206.061C327.78 206.195 327.195 206.105 326.708 205.81C326.222 205.515 325.872 205.039 325.736 204.487C325.601 203.934 325.69 203.351 325.985 202.865L344.585 172.294C344.881 171.809 345.359 171.461 345.912 171.326C346.466 171.192 347.05 171.282 347.537 171.577C348.024 171.872 348.374 172.348 348.509 172.9C348.645 173.452 348.555 174.036 348.26 174.522Z" fill="#6C63FF"/>
<path d="M222.484 272.25C222.484 272.25 218.56 332.635 215.318 341.987C211.797 352.107 212.254 367.467 206.969 382.175C205.339 386.716 203.673 391.321 202.007 395.889C201.675 396.81 201.335 397.731 201.004 398.652C198.827 404.598 196.65 410.445 194.572 415.97C194.277 416.748 193.981 417.517 193.694 418.277C193.686 418.295 193.686 418.312 193.677 418.321C186.815 436.337 180.939 450.508 178.592 452.85C176.084 455.353 159.137 456.39 138.195 456.677C99.3822 457.195 46.8381 455.148 46.8381 455.148L46.9187 434.075C46.9187 434.075 47.3845 433.941 48.2534 433.681C49.8568 433.216 52.8396 432.349 56.736 431.196C73.0116 426.404 105.267 416.757 120.038 411.428C124.212 409.926 126.989 408.764 127.616 408.147C131.288 404.571 132.91 408.147 135.239 411.723C137.567 415.299 138.284 411.723 141.33 409.095C144.375 406.466 151.236 410.078 151.236 410.078C151.236 410.078 151.299 407.7 151.398 403.909C151.541 398.312 151.756 389.604 151.971 380.887C151.962 380.878 151.962 380.878 151.971 380.878C152.052 377.597 152.132 374.316 152.204 371.205C152.267 368.791 152.32 366.475 152.374 364.329C152.517 357.901 152.616 353.037 152.616 351.821C152.616 347.852 152.616 350.936 155.76 348.54C156.23 348.172 156.675 347.775 157.095 347.351C157.766 346.75 158.383 346.092 158.94 345.384C159.173 344.883 157.731 345.563 155.858 345.187C154.844 344.982 153.905 344.503 153.144 343.802C149.194 340.252 153.458 329.363 153.458 329.363C144.483 311.446 145.128 296.747 149.329 285.428C152.467 277.298 157.453 270.005 163.893 264.123C166.346 261.795 169.015 259.705 171.865 257.882L172.143 256.407L175.18 240.019C181.823 236.334 189.5 234.941 197.018 236.058C202.645 236.877 208.093 238.639 213.132 241.271C217.247 243.335 221.109 245.867 224.642 248.817L222.484 272.25Z" fill="#2F2E41"/>
<path d="M139.952 545.831L149.778 546.743L158.057 508.504L143.555 507.159L139.952 545.831Z" fill="#FFB6B6"/>
<path d="M168.256 560.816L153.655 548.613L154.309 541.594L150.914 541.478L140.389 541.138L137.809 541.049L133.429 565.644L140.801 566.324L142.763 559.502L145.477 566.762L165.013 568.577C165.95 568.664 166.889 568.449 167.695 567.965C168.501 567.481 169.131 566.753 169.493 565.887C169.855 565.02 169.93 564.061 169.708 563.149C169.485 562.237 168.976 561.42 168.256 560.816Z" fill="#2F2E41"/>
<path d="M194.572 415.97C190.837 436.283 175.009 483.892 165.443 511.76C161.081 524.491 158.035 533.11 158.035 533.11L153.064 531.545L144.68 528.899L141.616 527.933L137.908 526.762C137.908 526.762 138.777 480.968 138.195 456.677C137.997 448.845 137.657 443.248 137.093 442.139C134.764 437.58 138.66 437.097 142.772 435.943C146.892 434.79 143.676 433.056 142.073 429.354C140.989 426.887 143.121 423.605 144.635 421.728C145.052 421.2 145.498 420.696 145.97 420.217C145.97 420.217 135.489 416.659 123.639 412.644C123.63 412.653 123.63 412.644 123.63 412.644C122.439 412.242 121.238 411.84 120.038 411.428C124.212 409.926 126.989 408.764 127.616 408.147C131.288 404.571 132.91 408.147 135.239 411.723C137.568 415.3 138.284 411.723 141.33 409.095C144.375 406.466 151.237 410.078 151.237 410.078C151.237 410.078 151.299 407.7 151.398 403.909C151.541 398.312 151.756 389.604 151.971 380.887C151.962 380.878 151.962 380.878 151.971 380.878C152.052 377.597 152.132 374.316 152.204 371.205C158.519 376.033 164.646 380.771 170.199 385.152C170.208 385.161 170.226 385.17 170.226 385.188C183.582 395.72 193.605 404.178 195.011 406.86C195.647 408.076 195.432 411.303 194.572 415.97Z" fill="#2F2E41"/>
<path d="M157.902 262.3C153.703 261.022 149.287 265.338 149.415 269.719C149.543 274.099 153.047 277.807 157.084 279.53C161.121 281.253 225.111 292.009 229.846 289.579C234.581 287.149 238.022 281.32 235.931 276.432C234.584 273.284 231.681 258.65 229.107 256.39C220.439 248.782 228.393 238.859 233.745 228.652C238.479 219.624 248.685 212.719 248.583 202.529C248.51 195.206 242.96 189.239 237.764 184.068L221.242 167.628L205.558 152.02C202.206 148.685 187.828 146.921 185.253 148.471C179.873 151.71 166.561 205.674 164.659 210.596C164.048 212.176 168.017 232.401 169.635 232.911C174.106 247.053 166.243 249.782 157.696 261.912" fill="#E6E6E6"/>
<path d="M286.261 180.609C284.508 181.046 282.995 182.149 282.045 183.683C281.094 185.217 280.781 187.061 281.171 188.822C281.256 189.178 281.37 189.527 281.513 189.865L263.672 206.186L268.784 218.136L290.802 193.141C292.16 192.442 293.248 191.314 293.896 189.933C294.543 188.552 294.715 186.996 294.384 185.507C294.187 184.662 293.826 183.863 293.32 183.158C292.814 182.452 292.174 181.852 291.436 181.394C290.698 180.935 289.877 180.625 289.019 180.483C288.162 180.341 287.285 180.369 286.438 180.565C286.379 180.579 286.32 180.594 286.261 180.609Z" fill="#FFB6B6"/>
<path d="M205.95 166.337C204.303 166.834 202.784 167.679 201.494 168.815C200.204 169.95 199.175 171.35 198.475 172.918C197.776 174.487 197.423 176.187 197.441 177.904C197.458 179.62 197.846 181.313 198.578 182.867L210.333 207.826L240.886 243.392C240.886 243.392 271.989 226.73 273.81 219.755C275.632 212.78 273.201 210.658 275.632 212.78C278.063 214.902 280.844 214.365 280.072 213.362C279.301 212.359 279.657 212.349 280.542 211.141C281.427 209.933 284.908 204.077 284.908 204.077L276.696 193.532C276.696 193.532 265.953 197.083 264.715 199.626C263.477 202.169 267.146 201.748 263.477 202.169C259.808 202.59 255.591 197.947 258.74 202.659C261.889 207.371 261.342 209.167 257.946 208.69C254.55 208.213 247.167 216.262 247.167 216.262L219.624 171.521C218.239 169.271 216.146 167.542 213.672 166.604C211.198 165.666 208.483 165.572 205.95 166.337Z" fill="#E6E6E6"/>
<path d="M195.703 141.718C210.494 141.718 222.484 129.751 222.484 114.988C222.484 100.225 210.494 88.2576 195.703 88.2576C180.913 88.2576 168.923 100.225 168.923 114.988C168.923 129.751 180.913 141.718 195.703 141.718Z" fill="#FFB6B6"/>
<path d="M175.009 95.2263C175.285 92.8206 176.937 89.8474 178.086 87.715C179.235 85.5825 181.454 83.8411 183.875 83.9897C184.864 84.1041 185.811 84.4557 186.635 85.0145C187.459 85.5732 188.135 86.3226 188.606 87.1986C189.53 88.9624 190.034 90.9153 190.077 92.9053C190.33 97.3452 189.588 101.785 187.903 105.902C186.219 110.019 183.635 113.709 180.341 116.703C178.464 118.383 176.205 119.879 173.684 119.936C172.54 119.908 171.412 119.653 170.368 119.184C169.323 118.715 168.384 118.043 167.604 117.206C163.524 113.128 162.907 106.423 165.086 101.086C167.265 95.7483 168.237 93.6714 173.218 90.756" fill="#2F2E41"/>
<path d="M212.63 133.671C212.183 136.049 216.303 147.359 214.986 149.397C214.986 149.397 201.352 154.124 196.139 154.464C189.77 154.875 184.648 152.267 178.691 148.342C178.583 146.213 177.966 144.141 176.89 142.298C176.981 143.725 176.69 145.151 176.048 146.429C167.324 139.491 164.049 120.413 172.675 111.553L181.632 90.9892C178.945 91.8832 187.057 78.0693 195.611 88.0738C206.316 77.193 227.052 92.8569 229.65 106.849C227.15 103.691 225.848 104.063 225.206 106.241C224.469 104.409 223.302 102.781 221.803 101.494C222.549 102.964 222.929 104.593 222.914 106.241C206.029 107.287 209.171 118.657 223.011 135.689C217.893 132.509 221.347 146.211 218.614 149.487C218.48 147.198 213.114 135.897 212.63 133.671Z" fill="#2F2E41"/>
<path d="M386.911 410.829H459.854C460.092 410.829 460.32 410.735 460.488 410.567C460.656 410.4 460.75 410.172 460.75 409.935C460.75 409.698 460.656 409.471 460.488 409.303C460.32 409.135 460.092 409.041 459.854 409.041H386.911C386.674 409.041 386.446 409.135 386.278 409.303C386.11 409.471 386.016 409.698 386.016 409.935C386.016 410.172 386.11 410.4 386.278 410.567C386.446 410.735 386.674 410.829 386.911 410.829Z" fill="#3F3D56"/>
<path d="M355.561 107.743H428.503C428.741 107.743 428.969 107.649 429.137 107.481C429.305 107.314 429.399 107.086 429.399 106.849C429.399 106.612 429.305 106.384 429.137 106.217C428.969 106.049 428.741 105.955 428.503 105.955H355.561C355.323 105.955 355.095 106.049 354.927 106.217C354.759 106.384 354.665 106.612 354.665 106.849C354.665 107.086 354.759 107.314 354.927 107.481C355.095 107.649 355.323 107.743 355.561 107.743Z" fill="#3F3D56"/>
<path d="M412.53 92.1213C397.74 72.4867 389.192 50.5302 388.912 25.498C388.436 24.1491 388.515 22.6665 389.132 21.3756C389.749 20.0847 390.854 19.091 392.205 18.6123L442.615 0.809374C443.966 0.333788 445.452 0.412714 446.745 1.02885C448.038 1.64499 449.034 2.74801 449.513 4.09593L473.131 70.7192C473.607 72.0682 473.528 73.5508 472.911 74.8417C472.294 76.1325 471.189 77.1263 469.838 77.6049L419.428 95.4079C418.077 95.8835 416.591 95.8046 415.298 95.1884C414.005 94.5723 413.009 93.4693 412.53 92.1213Z" fill="#E6E6E6"/>
<path d="M409.263 70.6327C400.368 61.6561 396.56 45.6456 394.079 27.8012C393.633 26.5378 393.707 25.1493 394.285 23.9404C394.863 22.7314 395.898 21.8008 397.163 21.3525L440.486 6.05238C441.752 5.60693 443.143 5.6808 444.354 6.25781C445.566 6.83481 446.498 7.86782 446.947 9.1302L467.963 68.4159C468.41 69.6793 468.336 71.0678 467.757 72.2768C467.179 73.4857 466.144 74.4164 464.88 74.8647L438.042 84.3428C432.404 86.3268 426.207 85.9976 420.812 83.4274C415.417 80.8571 411.263 76.2558 409.263 70.6327Z" fill="white"/>
<path d="M447.527 41.0677L413.78 53.0913C413.243 53.2827 412.651 53.2532 412.136 53.0095C411.621 52.7658 411.224 52.3277 411.032 51.7917C410.84 51.2557 410.87 50.6656 411.114 50.1513C411.358 49.637 411.797 49.2405 412.334 49.0492L446.082 37.0256C446.618 36.835 447.209 36.8649 447.724 37.1087C448.239 37.3525 448.636 37.7904 448.827 38.326C449.019 38.8617 448.989 39.4513 448.746 39.9654C448.502 40.4795 448.064 40.876 447.527 41.0677Z" fill="#6C63FF"/>
<path d="M417.24 39.3624L409.816 42.0076C409.55 42.1027 409.268 42.1445 408.986 42.1307C408.703 42.1168 408.427 42.0476 408.171 41.927C407.916 41.8064 407.687 41.6367 407.497 41.4276C407.308 41.2186 407.161 40.9743 407.066 40.7087C406.971 40.4431 406.93 40.1615 406.944 39.8798C406.958 39.5982 407.028 39.3221 407.149 39.0673C407.27 38.8126 407.44 38.5841 407.65 38.3951C407.859 38.206 408.104 38.06 408.37 37.9655L415.795 35.3203C416.332 35.1297 416.922 35.1595 417.437 35.4034C417.952 35.6472 418.349 36.085 418.54 36.6207C418.732 37.1564 418.703 37.746 418.459 38.2601C418.215 38.7742 417.777 39.1707 417.24 39.3624Z" fill="#6C63FF"/>
<path d="M453.882 58.8379L420.135 70.8615C419.598 71.0521 419.007 71.0222 418.492 70.7784C417.977 70.5346 417.581 70.0967 417.389 69.5611C417.197 69.0254 417.227 68.4358 417.471 67.9217C417.714 67.4076 418.153 67.0111 418.689 66.8194L452.437 54.7958C452.973 54.6051 453.564 54.635 454.079 54.8788C454.594 55.1227 454.991 55.5605 455.182 56.0962C455.374 56.6318 455.344 57.2215 455.101 57.7356C454.857 58.2497 454.419 58.6461 453.882 58.8379Z" fill="#6C63FF"/>
<path d="M450.705 49.9528L416.957 61.9763C416.42 62.1677 415.829 62.1382 415.314 61.8945C414.798 61.6508 414.401 61.2127 414.209 60.6767C414.018 60.1407 414.047 59.5506 414.291 59.0363C414.536 58.522 414.975 58.1256 415.512 57.9342L449.259 45.9107C449.525 45.8156 449.807 45.7738 450.089 45.7876C450.372 45.8015 450.648 45.8707 450.904 45.9913C451.159 46.1119 451.388 46.2816 451.578 46.4906C451.767 46.6997 451.914 46.944 452.009 47.2096C452.104 47.4751 452.145 47.7568 452.131 48.0385C452.117 48.3201 452.047 48.5962 451.926 48.851C451.805 49.1057 451.635 49.3342 451.425 49.5232C451.216 49.7123 450.971 49.8582 450.705 49.9528Z" fill="#6C63FF"/>
<path d="M391.778 32.6421C396.725 32.6421 400.736 28.6392 400.736 23.7015C400.736 18.7637 396.725 14.7609 391.778 14.7609C386.831 14.7609 382.821 18.7637 382.821 23.7015C382.821 28.6392 386.831 32.6421 391.778 32.6421Z" fill="#6C63FF"/>
<path d="M442.089 394.313C427.3 374.679 418.752 352.722 418.471 327.69C417.995 326.341 418.074 324.859 418.691 323.568C419.309 322.277 420.414 321.283 421.764 320.804L472.174 303.001C473.526 302.526 475.011 302.605 476.304 303.221C477.598 303.837 478.593 304.94 479.073 306.288L502.69 372.911C503.167 374.26 503.087 375.743 502.47 377.034C501.853 378.325 500.748 379.318 499.397 379.797L448.988 397.6C447.636 398.076 446.151 397.997 444.857 397.38C443.564 396.764 442.568 395.661 442.089 394.313Z" fill="#E6E6E6"/>
<path d="M438.822 372.825C429.927 363.848 426.12 347.838 423.639 329.993C423.192 328.73 423.266 327.341 423.845 326.132C424.423 324.923 425.458 323.993 426.722 323.545L470.045 308.244C471.311 307.799 472.702 307.873 473.914 308.45C475.125 309.027 476.057 310.06 476.507 311.322L497.523 370.608C497.969 371.871 497.895 373.26 497.317 374.469C496.739 375.678 495.704 376.608 494.439 377.057L467.601 386.535C461.963 388.519 455.767 388.19 450.371 385.619C444.976 383.049 440.823 378.448 438.822 372.825Z" fill="white"/>
<path d="M477.086 343.26L443.339 355.283C442.802 355.475 442.211 355.445 441.695 355.201C441.18 354.958 440.783 354.52 440.591 353.984C440.4 353.448 440.429 352.858 440.673 352.343C440.918 351.829 441.356 351.433 441.893 351.241L475.641 339.218C476.178 339.027 476.768 339.057 477.283 339.301C477.798 339.545 478.195 339.982 478.386 340.518C478.578 341.054 478.549 341.643 478.305 342.157C478.061 342.672 477.623 343.068 477.086 343.26Z" fill="#6C63FF"/>
<path d="M446.8 341.554L439.375 344.2C438.838 344.39 438.248 344.36 437.733 344.117C437.218 343.873 436.821 343.435 436.63 342.899C436.438 342.364 436.468 341.774 436.711 341.26C436.955 340.746 437.393 340.349 437.93 340.158L445.354 337.512C445.62 337.417 445.902 337.375 446.184 337.389C446.467 337.403 446.743 337.472 446.999 337.593C447.254 337.714 447.483 337.883 447.673 338.092C447.862 338.301 448.009 338.546 448.104 338.811C448.199 339.077 448.24 339.358 448.226 339.64C448.212 339.922 448.143 340.198 448.021 340.453C447.9 340.707 447.73 340.936 447.52 341.125C447.311 341.314 447.066 341.46 446.8 341.554Z" fill="#6C63FF"/>
<path d="M480.264 352.145L446.516 364.168C445.979 364.36 445.388 364.33 444.873 364.087C444.358 363.843 443.96 363.405 443.769 362.869C443.577 362.333 443.607 361.743 443.851 361.228C444.095 360.714 444.534 360.318 445.071 360.126L478.818 348.103C479.084 348.008 479.366 347.966 479.649 347.98C479.931 347.993 480.208 348.063 480.463 348.183C480.718 348.304 480.947 348.474 481.137 348.683C481.327 348.892 481.473 349.136 481.568 349.402C481.663 349.667 481.705 349.949 481.69 350.23C481.676 350.512 481.607 350.788 481.486 351.043C481.364 351.298 481.194 351.526 480.985 351.715C480.775 351.904 480.53 352.05 480.264 352.145Z" fill="#6C63FF"/>
<path d="M423.129 333.94C428.076 333.94 432.086 329.937 432.086 324.999C432.086 320.062 428.076 316.059 423.129 316.059C418.182 316.059 414.172 320.062 414.172 324.999C414.172 329.937 418.182 333.94 423.129 333.94Z" fill="#6C63FF"/>
<path d="M281.334 163.977C286.281 163.977 290.292 159.974 290.292 155.037C290.292 150.099 286.281 146.096 281.334 146.096C276.387 146.096 272.377 150.099 272.377 155.037C272.377 159.974 276.387 163.977 281.334 163.977Z" fill="#6C63FF"/>
<path d="M188.264 111.773C188.048 111.772 187.84 111.694 187.677 111.553C187.514 111.411 187.408 111.215 187.378 111.002C187.348 110.788 187.397 110.571 187.515 110.39C187.633 110.21 187.812 110.078 188.02 110.019C188.255 109.632 188.158 108.004 188.081 106.688C187.79 101.75 187.302 93.4841 195.342 87.9045C195.537 87.7692 195.778 87.7167 196.011 87.7586C196.245 87.8005 196.453 87.9334 196.588 88.128C196.724 88.3227 196.776 88.5631 196.734 88.7964C196.692 89.0297 196.559 89.2369 196.364 89.3722C189.149 94.3799 189.582 101.724 189.869 106.583C190.033 109.362 190.151 111.368 188.463 111.75C188.398 111.765 188.331 111.773 188.264 111.773Z" fill="#6C63FF"/>
<path d="M12.7744 568.436C12.774 568.576 12.8013 568.714 12.8547 568.844C12.9081 568.973 12.9866 569.09 13.0857 569.189C13.1848 569.288 13.3024 569.367 13.432 569.42C13.5615 569.473 13.7003 569.5 13.8404 569.5H240.722C241.005 569.5 241.276 569.388 241.476 569.188C241.676 568.989 241.788 568.718 241.788 568.436C241.788 568.154 241.676 567.883 241.476 567.684C241.276 567.484 241.005 567.372 240.722 567.372H13.8404C13.7003 567.372 13.5615 567.399 13.432 567.452C13.3025 567.506 13.1848 567.584 13.0857 567.683C12.9866 567.782 12.9081 567.899 12.8547 568.028C12.8013 568.158 12.774 568.296 12.7744 568.436Z" fill="#CCCCCC"/>
<path d="M188.682 92.2321C183.215 89.9674 177.391 88.6793 171.478 88.4265C166.787 88.2281 161.191 89.2721 159.284 93.5543C158.127 96.1521 158.743 99.1971 159.801 101.837C160.86 104.476 162.345 106.97 162.957 109.746C164.277 115.727 161.162 122.065 156.38 125.903C151.599 129.741 145.428 131.435 139.341 132.205C143.914 133.898 148.558 135.608 153.419 136.014C158.279 136.421 163.471 135.366 167.1 132.113C171.028 128.593 172.537 123.125 173.205 117.898C173.873 112.672 173.908 107.289 175.683 102.327C177.458 97.3652 181.535 92.7441 186.795 92.304" fill="#2F2E41"/>
</g>
<defs>
<clipPath id="clip0_33_332">
<rect width="503" height="569" fill="white" transform="translate(0 0.5)"/>
</clipPath>
</defs>
</svg>
