<svg width="904" height="430" viewBox="0 0 904 430" fill="none" xmlns="http://www.w3.org/2000/svg">
<g clip-path="url(#clip0_33_101)">
<path d="M863.874 237.728L861.042 258.712L854.014 310.832H712.823C713.925 299.15 715.433 282.336 717.043 264.184C717.202 262.371 717.368 260.547 717.527 258.712C721.564 213.084 725.983 161.451 725.983 161.451L744.545 164.669L780.559 170.901L795.234 173.439L834.532 180.248C854.125 183.636 867.602 210.036 863.874 237.728Z" fill="#F2F2F2"/>
<path d="M757.076 77.0171L774.439 105.292L741.067 127.3L726.832 92.5452L757.076 77.0171Z" fill="#FFB6B6"/>
<path d="M734.972 103.766C758.727 103.766 777.985 85.8451 777.985 63.7384C777.985 41.6318 758.727 23.7108 734.972 23.7108C711.216 23.7108 691.958 41.6318 691.958 63.7384C691.958 85.8451 711.216 103.766 734.972 103.766Z" fill="#FFB6B6"/>
<path d="M731.883 72.6869C728.467 67.8497 729.808 65.3197 726.949 63.542C726.949 63.542 725.798 62.8267 717.563 62.4188C715.719 50.0702 713.418 48.5727 713.418 48.5727C710.765 46.8468 706.829 47.4075 704.38 48.4631C699.2 50.6957 699.801 55.5182 696.313 56.441C691.496 57.7159 682.73 50.5292 681.867 42.3018C681.162 35.5906 685.809 29.0724 687.652 29.4172C689.479 29.7591 693.854 24.5618 696.216 24.6419C697.829 24.6967 704.42 22.0308 706.193 22.2392C708.129 22.4669 714.514 25.5673 714.78 24.8589C716.629 19.9365 716.085 18.5708 717.654 17.1626C720.434 14.6672 724.981 16.4049 732.115 17.3378C746.793 19.2572 749.355 14.7534 756.877 17.8061C760.677 19.3482 763.857 23.5071 770.061 31.7618C778.737 43.306 783.075 49.078 783.103 55.8104C783.131 62.6761 779.559 62.2403 777.989 72.4045C776.242 83.7189 779.954 88.8925 775.899 92.5683C772.765 95.4092 766.395 96.0836 763.049 93.5903C757.318 89.3214 764.817 79.0207 758.476 71.495C754.584 66.8754 746.756 64.82 743.17 67.1035C739.116 69.6854 741.349 77.264 738.498 77.9826C736.057 78.5981 732.478 73.5299 731.883 72.6869Z" fill="#2F2E41"/>
<path d="M832.081 230.338C830.881 249.427 826.116 255.454 824.447 277.999C824.082 282.949 823.863 288.694 823.863 295.546C823.863 297.293 823.873 298.982 823.873 300.632C823.873 304.145 823.801 307.464 823.362 310.831C823.029 313.52 822.456 316.228 821.507 319.081H728.865C728.855 319.061 728.855 319.042 728.844 319.022C728.302 316.829 727.958 314.733 727.697 312.724C727.614 312.083 727.54 311.453 727.478 310.831C727.395 310.104 727.321 309.386 727.249 308.677C726.967 305.853 726.686 303.184 726.018 300.632C725.121 297.108 723.494 293.789 720.156 290.587C718.791 289.277 717.425 288.258 716.09 287.365C715.829 287.199 715.578 287.035 715.318 286.87C711.626 284.511 708.132 282.813 705.108 277.999C705.056 277.931 705.014 277.854 704.972 277.786C704.451 276.941 703.095 274.728 702.114 271.778C701.082 268.712 700.456 264.858 701.583 260.919C704.263 251.582 714.191 250.651 722.305 241.217C723.181 240.198 724.047 239.072 724.871 237.82C728.541 232.269 729.532 227.378 730.701 221.564C730.888 220.623 731.055 219.691 731.19 218.789C731.295 218.109 731.389 217.44 731.462 216.779C732.108 211.238 731.795 206.463 731.035 202.193C728.553 188.208 721.231 179.551 726.404 167.002C728.031 163.062 730.336 160.102 732.661 157.569C737.583 152.202 742.642 148.718 741.766 141.789C740.879 134.801 735.185 133.84 734.549 127.736C734.225 124.65 735.31 121.398 737.344 118.205V118.196C743.852 107.918 760.1 98.4554 770.425 98.7563C772.333 98.8051 774.023 99.2027 775.43 99.9695C780.531 102.764 778.403 108.869 786.215 117.429C792.023 123.786 798.593 126.329 801.086 127.532C810.962 132.326 818.993 146.467 824.447 164.547C824.489 164.683 824.53 164.819 824.572 164.964C827.941 176.29 830.319 189.149 831.498 202.193C831.998 207.715 832.29 213.267 832.352 218.759C832.405 223.146 832.3 226.951 832.081 230.338Z" fill="white"/>
<path d="M762.708 295.74L760.82 300.632L759.631 303.698L756.877 310.831L753.686 319.081H733.172L736.614 310.831L738.21 306.988L740.859 300.632L745.301 289.956L762.708 295.74Z" fill="#FFB6B6"/>
<path d="M824.771 162.878C824.719 163.509 824.646 164.207 824.572 164.965C823.76 172.67 821.84 186.461 819.035 202.193C817.554 210.491 815.823 219.332 813.872 228.115C809.68 247.069 804.466 265.732 798.573 277.999C797.52 280.212 796.435 282.211 795.329 283.978C794.485 285.327 793.598 286.656 792.67 287.966C789.667 292.266 786.298 296.342 782.804 300.146C782.669 300.311 782.512 300.467 782.356 300.632C781.793 301.252 781.208 301.864 780.625 302.476C777.767 305.474 774.847 308.269 772.021 310.831C768.579 313.957 765.262 316.723 762.29 319.081H728.98L728.844 319.022L724.047 317.043C724.047 317.043 725.413 315.548 727.697 312.724C728.167 312.151 728.667 311.52 729.21 310.831C729.877 309.987 730.597 309.055 731.368 308.046C732.974 305.931 734.799 303.446 736.76 300.632C740.556 295.187 744.884 288.49 749.254 280.736C749.755 279.834 750.265 278.921 750.777 277.999C750.787 277.97 750.808 277.941 750.818 277.912C751.684 276.34 752.54 274.719 753.394 273.069C760.642 259.035 762.718 247.389 763.313 243.614C764.147 238.277 765.304 230.813 764.991 222.603C764.783 217.188 763.938 211.461 761.926 205.774V205.765C761.508 204.571 761.039 203.377 760.507 202.193C759.558 200.068 758.431 197.971 757.096 195.904C751.204 186.801 746.418 186.422 742.611 176.503C741.484 173.563 738.929 166.925 739.711 159.918V159.908C739.806 159.044 739.962 158.171 740.17 157.297V157.288C740.222 157.045 740.296 156.793 740.369 156.55C740.963 154.406 741.944 152.28 743.435 150.261C746.344 146.341 750.317 144.011 753.874 142.623L753.885 142.613C757.993 141.022 761.54 140.682 762.228 140.624C777.464 139.363 789.281 151.28 795.737 157.792C798.229 160.306 800.513 162.412 802.599 164.13C818.836 177.62 823.29 169.002 824.447 164.547C824.624 163.858 824.719 163.266 824.771 162.878Z" fill="white"/>
<path d="M824.823 162.373C824.823 162.422 824.813 162.587 824.771 162.859C824.791 162.713 824.802 162.567 824.813 162.431C824.813 162.402 824.813 162.383 824.823 162.373Z" fill="#6610F2"/>
<path d="M741.995 367.16H182.947C177.753 367.16 173.519 371.09 173.519 375.924C173.519 380.766 177.753 384.697 182.947 384.697H741.995C747.189 384.697 751.413 380.766 751.413 375.924C751.413 371.09 747.189 367.16 741.995 367.16Z" fill="white"/>
<path d="M617.932 412.463H307C301.806 412.463 297.583 416.393 297.583 421.227C297.583 426.06 301.806 430 307 430H617.932C623.125 430 627.359 426.06 627.359 421.227C627.359 416.393 623.125 412.463 617.932 412.463Z" fill="white"/>
<path d="M245.155 78.8777L280.388 65.0793L295.5 93.9086L258.475 107.972L245.155 78.8777Z" fill="#FFB6B6"/>
<path opacity="0.1" d="M245.155 78.8777L280.388 65.0793L295.5 93.9086L258.475 107.972L245.155 78.8777Z" fill="black"/>
<path d="M250.164 67.8919L284.922 105.159C284.922 105.159 260.742 176.178 236.563 182.506C212.383 188.834 167.802 219.773 167.802 219.773L111.887 186.022L139.089 148.755C139.089 148.755 204.827 65.0793 222.206 65.0793C239.585 65.0793 250.164 67.8919 250.164 67.8919Z" fill="white"/>
<path d="M203.203 310.832H122.292L117.177 304.468L96.2916 278.487L91.4859 272.51C91.4859 272.51 73.3513 241.571 77.1294 213.445C80.9074 185.319 120.199 178.99 120.199 178.99H121.816L169.918 218.325L167.047 254.931L182.28 278.487L203.203 310.832Z" fill="#2F2E41"/>
<path d="M138.863 310.832H117.177V280.948L138.863 310.832Z" fill="#2F2E41"/>
<path d="M606.599 265.464L603.902 278.487L597.207 310.832H462.716C463.767 303.582 465.202 293.147 466.736 281.883C466.887 280.758 467.046 279.626 467.197 278.487C471.043 250.171 475.252 218.128 475.252 218.128L492.933 220.125L527.238 223.992L541.216 225.567L578.649 229.793C597.313 231.896 610.151 248.279 606.599 265.464Z" fill="#F2F2F2"/>
<path d="M796.93 310.832H723.983C725.094 309.615 725.721 308.912 725.721 308.912L747.588 305.551L792.645 298.632C792.645 298.632 794.7 303.575 796.93 310.832Z" fill="#2F2E41"/>
<path d="M487.511 92.9418L519.234 134.691L463.898 136.229L457.959 96.9943L487.511 92.9418Z" fill="#A0616A"/>
<path opacity="0.1" d="M487.511 92.9418L519.234 134.691L463.898 136.229L457.959 96.9943L487.511 92.9418Z" fill="black"/>
<path d="M331.066 179.443C326.995 168.516 317.637 161.613 310.165 164.025C302.693 166.437 299.937 177.249 304.01 188.179C305.573 192.566 308.242 196.541 311.794 199.771L329.669 245.867L352.735 237.6L332.665 193.036C333.306 188.451 332.758 183.79 331.066 179.443Z" fill="#A0616A"/>
<path d="M545.801 158.17L545.758 200.718L541.504 216.433L532.754 248.757L526.384 278.487L521.639 300.636L519.946 308.547C518.669 309.341 517.4 310.101 516.13 310.832H405.607C399.328 307.323 395.815 304.595 395.815 304.595C395.815 304.595 397.553 303.076 399.54 300.636C402.895 296.516 406.952 289.765 404.466 283.317C403.945 281.967 403.809 280.322 403.968 278.487C404.98 266.378 418.627 245.902 418.627 245.902L415.801 215.512L414.561 202.194L423.298 137.258L451.777 121.852L456.694 121.409L505.227 118.969L525.286 120.045L526.201 120.277L545.801 158.17Z" fill="white"/>
<path d="M547.956 310.832H523.777L522.712 300.636L522.689 300.432L529.535 299.996L547.344 298.864L547.654 304.967L547.896 309.651L547.956 310.832Z" fill="#FFB6B6"/>
<path d="M553.909 168.457L564.066 223.915L555.777 278.487L554.485 286.981L552.203 301.979L551.5 306.592L551.523 307.091L551.697 310.832H522.984L521.926 300.636L521.835 299.722L519.674 278.838L519.636 278.487L515.05 234.202L524.041 202.194L524.707 199.839V199.832L528.619 145.028L525.589 120.122L525.558 119.89C525.619 119.925 525.672 119.961 525.732 119.996C525.891 120.087 526.05 120.178 526.201 120.277C543.852 130.698 554.37 148.98 553.909 168.457Z" fill="white"/>
<path d="M433.585 147.885L422.544 137.257C422.544 137.257 398.907 147.173 397.729 152.675C396.55 158.176 354.817 238.977 354.817 238.977L336.66 193.85L313.026 208.534C313.026 208.534 331.99 278.597 349.725 281.886C367.461 285.175 426.902 198.96 426.902 198.96L433.585 147.885Z" fill="white"/>
<path d="M881.922 277.999H22.068C9.89741 277.999 0 287.219 0 298.545C0 309.87 9.8974 319.081 22.068 319.081H881.922C894.092 319.081 904 309.871 904 298.545C904 287.218 894.092 277.999 881.922 277.999Z" fill="#E6E6E6"/>
<path d="M540.769 215.394L539.097 287.99C538.935 295.018 532.767 300.636 525.214 300.636H381.707C374.333 300.636 368.244 295.271 367.841 288.419L363.577 215.823C363.142 208.419 369.475 202.194 377.443 202.194H526.885C534.671 202.194 540.936 208.15 540.769 215.394Z" fill="#3F3D56"/>
<path d="M309.101 96.4017C328.063 96.4017 343.435 82.0969 343.435 64.4509C343.435 46.8049 328.063 32.5001 309.101 32.5001C290.139 32.5001 274.767 46.8049 274.767 64.4509C274.767 82.0969 290.139 96.4017 309.101 96.4017Z" fill="#FFB6B6"/>
<path d="M251.675 148.052L255.453 186.022L281.144 282.354L258.949 289.593L221.451 184.616L216.271 142.426L251.675 148.052Z" fill="#FFB6B6"/>
<path d="M241.455 215.394L239.784 287.99C239.622 295.018 233.454 300.636 225.9 300.636H82.394C75.0191 300.636 68.9305 295.271 68.528 288.419L64.2632 215.823C63.8283 208.419 70.1619 202.194 78.1292 202.194H227.572C235.358 202.194 241.622 208.15 241.455 215.394Z" fill="#3F3D56"/>
<path d="M285.234 301.127C300.21 301.127 312.35 296.13 312.35 289.966C312.35 283.802 300.21 278.805 285.234 278.805C270.259 278.805 258.119 283.802 258.119 289.966C258.119 296.13 270.259 301.127 285.234 301.127Z" fill="#FFB6B6"/>
<path d="M198.405 153.857L213.895 77.0329C213.895 77.0329 256.964 71.4077 258.475 84.7676C259.987 98.1276 257.396 163.419 257.396 163.419L198.405 153.857Z" fill="white"/>
<path d="M295.241 69.4746C295.241 69.4746 316.48 62.4206 325.439 58.6252C334.399 54.8299 352.197 81.3025 352.593 67.3214C352.989 53.3403 346.839 47.4773 346.839 47.4773C346.839 47.4773 345.303 16.8917 312.19 20.7156C312.19 20.7156 319.474 5.41332 295.566 3.0471C271.658 0.680878 234.463 54.4072 237.794 62.4364C241.125 70.4655 245.118 77.1035 235.667 85.6884C226.217 94.2733 208.52 142.724 221.984 155.762C235.449 168.8 236.332 174.457 227.107 182.569C217.882 190.68 196.076 208.316 219.653 211.378C243.23 214.44 217.496 212.153 235.073 197.766C252.65 183.378 278.299 183.966 268.722 160.882C259.145 137.798 275.784 104.719 273.702 99.7013C271.62 94.6831 278.366 62.8172 278.366 62.8172C278.366 62.8172 294.067 60.6706 295.241 69.4746Z" fill="#2F2E41"/>
<path d="M470.549 108.053C491.191 108.053 507.924 92.481 507.924 73.2721C507.924 54.0632 491.191 38.4913 470.549 38.4913C449.907 38.4913 433.174 54.0632 433.174 73.2721C433.174 92.481 449.907 108.053 470.549 108.053Z" fill="#A0616A"/>
<path d="M473.532 26.5117C472.45 27.0992 471.002 26.2104 470.655 25.0906C470.308 23.9708 470.712 22.7819 471.113 21.6778L473.129 16.1196C474.56 12.1776 476.078 8.09778 479.175 5.09738C483.85 0.568768 491.28 -0.58329 497.969 0.251336C506.558 1.32316 515.032 5.65128 519.026 12.8084C523.02 19.9655 521.32 29.9522 514.103 34.4175C524.388 45.3876 527.973 57.6132 527.407 72.162C526.841 86.7109 509.804 100.101 498.693 110.35C496.212 108.95 493.956 102.391 495.321 100.008C496.685 97.6247 494.73 94.8641 496.42 92.6692C498.11 90.4743 499.524 93.9692 497.815 91.7868C496.737 90.4096 500.945 87.2414 499.342 86.4171C491.592 82.4304 489.014 73.4404 484.146 66.5561C478.275 58.2523 468.226 52.6289 457.591 51.696C451.733 51.1821 445.546 52.1129 440.744 55.2778C435.942 58.4426 432.834 64.0982 433.947 69.475C431.063 66.7502 429.628 62.7571 430.169 58.9661C430.711 55.1751 433.217 51.6695 436.766 49.7402C434.608 43.1006 436.456 35.463 441.464 30.325C446.472 25.1871 466.786 26.0622 474.097 27.4144L473.532 26.5117Z" fill="#2F2E41"/>
<path d="M474.667 51.8976C484.351 52.8703 491.342 60.6759 497.246 67.8843C500.649 72.0391 504.213 76.6273 504.128 81.8506C504.041 87.1315 500.247 91.6611 498.434 96.6658C495.47 104.846 498.359 114.579 505.414 120.184C498.442 121.415 490.906 116.551 489.702 110.043C488.301 102.467 494.473 95.1553 493.742 87.4982C493.098 80.7523 487.385 75.5605 482.529 70.5166C477.672 65.4727 473.111 58.7795 475.345 52.3341L474.667 51.8976Z" fill="#2F2E41"/>
<path d="M619.43 282.395C609.839 287.472 604.879 296.192 608.352 301.872C611.825 307.552 622.414 308.04 632.008 302.96C635.87 300.98 639.167 298.168 641.622 294.759L681.969 272.771L670.477 255.372L631.922 278.895C627.518 279.117 623.234 280.317 619.43 282.395Z" fill="#FFB6B6"/>
<path d="M756.038 121.159C754.832 120.714 744.253 116.986 734.594 121.908C723.499 127.563 721.786 140.471 721.185 144.998C719.796 155.456 723.887 157.8 724.75 168.388C726.366 188.196 730.625 165.599 723.823 174.64C721.468 177.77 697.419 226.269 684.156 235.769C658.362 254.245 641.982 267.256 641.982 267.256L660.682 286.159C660.682 286.159 690.23 278.833 716.348 263.051C743.138 246.863 756.533 238.769 766.897 222.935C767.789 221.572 789.143 187.826 777.675 150.512C775.059 142.001 770.266 126.406 756.038 121.159Z" fill="white"/>
<path d="M852.597 215.394L850.926 287.99C850.764 295.018 844.596 300.636 837.042 300.636H693.536C686.161 300.636 680.072 295.271 679.67 288.419L675.405 215.823C674.97 208.419 681.304 202.194 689.271 202.194H838.714C846.5 202.194 852.764 208.15 852.597 215.394Z" fill="#3F3D56"/>
</g>
<defs>
<clipPath id="clip0_33_101">
<rect width="904" height="430" fill="white"/>
</clipPath>
</defs>
</svg>
